<?xml version="1.0" encoding="UTF-8" standalone="no"?>
<svg
   width="635.3797"
   height="411.33792"
   viewBox="0 0 635.3797 411.33792"
   fill="none"
   version="1.1"
   id="svg1361"
   xmlns="http://www.w3.org/2000/svg"
   xmlns:svg="http://www.w3.org/2000/svg">
  <g
     id="g1453"
     transform="translate(-412.15202,741.50118)">
    <g
       id="g1442"
       transform="matrix(2.724679,0,0,2.724679,311.54033,-333.09944)">
      <g
         id="g1423"
         transform="translate(-51.559687,-160.22099)"
         style="fill:#cc8213;fill-opacity:1">
        <path
           style="fill:#cc8213;fill-opacity:1;stroke-width:0.0989629"
           d="M 94.531123,101.92959 C 93.05628,101.55538 92.134101,100.39199 91.630326,98.270037 91.46765,97.584832 91.44947,96.507989 91.393071,84.217454 91.336298,71.845537 91.319565,70.865371 91.155772,70.317435 90.951874,69.635336 90.67716,69.060042 90.341457,68.612136 90.211382,68.438587 90.138536,68.276863 90.179575,68.25275 c 0.118676,-0.06973 1.744785,-0.455744 2.578741,-0.612157 2.316109,-0.434399 6.836004,-0.675449 9.895644,-0.527741 4.26843,0.206063 7.66668,1.658849 9.69107,4.143032 0.69131,0.848333 1.44914,2.386571 1.77829,3.609573 0.2499,0.928549 0.26669,1.124007 0.27199,3.166814 0.004,1.70965 -0.0319,2.361695 -0.16938,3.036402 -0.73368,3.601826 -2.57016,6.095456 -5.56463,7.555848 -2.15738,1.052143 -4.36636,1.550821 -7.50043,1.693229 l -1.455717,0.06614 7.47e-4,3.423592 c 4.15e-4,1.90006 0.04677,3.709849 0.104157,4.066851 0.116335,0.723663 0.441523,1.503747 0.850223,2.039578 l 0.27465,0.360089 -0.29326,0.23881 c -0.48345,0.39369 -1.824273,1.01082 -2.668369,1.22816 -0.898084,0.23124 -2.852199,0.33832 -3.442178,0.18862 z m 8.245757,-18.261865 c 1.44365,-0.324053 2.31595,-0.907237 2.84682,-1.903254 0.50067,-0.939354 0.65113,-1.671145 0.65544,-3.187904 0.005,-1.836783 -0.28969,-2.786904 -1.1571,-3.72794 -0.97761,-1.060571 -2.67237,-1.559465 -4.66369,-1.372863 l -0.753197,0.07058 v 5.20222 5.202218 l 1.166697,-0.05866 c 0.64168,-0.03226 1.49894,-0.133241 1.90503,-0.224397 z"
           id="path1415" />
        <path
           style="fill:#cc8213;fill-opacity:1;stroke-width:0.0989629"
           d="m 125.18811,110.48187 c -0.98332,-0.14077 -1.82931,-0.30152 -3.87015,-0.73542 -2.92321,-0.6215 -3.9359,-0.7448 -4.895,-0.59599 -0.7201,0.11173 -1.30913,0.33472 -1.76603,0.66857 l -0.23904,0.17466 0.0622,-1.13627 c 0.17676,-3.22962 1.43774,-5.07598 3.72458,-5.45364 0.97892,-0.16167 2.41965,0.0106 3.99774,0.47803 0.6624,0.1962 1.55278,0.46067 1.97861,0.58771 2.34194,0.69868 4.62494,0.43392 5.50989,-0.63896 0.56809,-0.68872 0.71797,-1.27792 0.76959,-3.02532 l 0.0464,-1.57191 -0.63068,0.640985 c -1.19111,1.210575 -2.4706,1.612125 -4.88609,1.533425 -2.43554,-0.0794 -3.85044,-0.60976 -5.20169,-1.949972 -0.89905,-0.891714 -1.46127,-1.906713 -1.85151,-3.342611 l -0.26153,-0.962299 -0.007,-6.135702 c -0.006,-5.423159 -0.0269,-6.244882 -0.18127,-7.075849 -0.23302,-1.254478 -0.50056,-2.113741 -0.86013,-2.762474 -0.16334,-0.294695 -0.28197,-0.550815 -0.26363,-0.569157 0.11307,-0.113068 2.39282,-0.355881 3.43084,-0.365413 2.25979,-0.02075 3.51638,0.539867 4.23069,1.887485 0.6777,1.278557 0.75997,2.253326 0.56838,6.733983 -0.26224,6.132632 -0.19497,7.664256 0.3871,8.812905 0.36366,0.717647 0.73873,0.949172 1.60884,0.993111 0.39031,0.01971 0.86572,-0.01567 1.05647,-0.07862 0.93602,-0.308915 1.58063,-1.186907 1.89298,-2.57834 0.35766,-1.593292 0.50785,-9.269554 0.217,-11.091144 -0.29257,-1.832415 -0.75259,-3.14046 -1.41448,-4.021982 l -0.23889,-0.318169 0.52195,-0.147171 c 1.54257,-0.434949 3.4969,-0.450716 4.63041,-0.03736 1.33917,0.488361 2.38767,1.431272 2.96614,2.667428 0.59327,1.267798 0.59158,1.239146 0.59175,10.028988 1.8e-4,9.595993 -0.0803,10.910023 -0.8089,13.211553 -0.79424,2.50877 -2.10369,4.19168 -4.03939,5.19143 -1.4361,0.74172 -2.45422,0.95982 -4.64887,0.99591 -1.00695,0.0165 -1.96441,0.011 -2.1277,-0.0124 z"
           id="path1416" />
        <path
           style="fill:#cc8213;fill-opacity:1;stroke-width:0.0989629"
           d="m 148.19,101.89546 c -1.60777,-0.4335 -2.54709,-1.7923 -2.91656,-4.219047 -0.11145,-0.732039 -0.14326,-2.124527 -0.14372,-6.290668 l -5.8e-4,-5.350521 -1.26178,-0.313074 c -1.49835,-0.371775 -2.46637,-0.729201 -3.14207,-1.160166 -0.67239,-0.428851 -0.80816,-0.603909 -0.97999,-1.263618 -0.1656,-0.635778 -0.41197,-3.740499 -0.31655,-3.989152 0.0478,-0.124662 0.13917,-0.14595 0.409,-0.09533 0.72538,0.136081 2.79879,0.349285 4.02779,0.414167 l 1.27856,0.0675 -0.0412,-4.295342 c -0.0344,-3.585824 -0.0683,-4.398025 -0.20498,-4.916975 -0.18314,-0.695134 -0.46176,-1.294823 -0.82918,-1.784717 -0.13535,-0.180471 -0.22969,-0.344541 -0.20963,-0.3646 0.13044,-0.130442 1.7998,-0.585749 2.73958,-0.747201 3.21022,-0.551513 5.07644,0.07721 6.13223,2.065918 0.61905,1.166044 0.64122,1.353536 0.68509,5.792053 l 0.04,4.042932 0.46311,-0.06863 c 1.55267,-0.230097 4.06641,-1.104037 4.81258,-1.673165 0.18593,-0.141816 0.37891,-0.257847 0.42885,-0.257847 0.0499,0 0.12076,0.812733 0.15737,1.806073 0.12294,3.335093 -0.19659,4.981381 -1.14153,5.881433 -0.64685,0.616127 -2.03484,1.105723 -3.59624,1.268537 -0.32658,0.03405 -0.71625,0.08495 -0.86593,0.113094 l -0.27215,0.05118 0.002,5.459839 c 0.002,5.823141 0.0334,6.281773 0.4964,7.205938 0.11878,0.237096 0.34543,0.567494 0.50367,0.734209 l 0.2877,0.30314 -0.71896,0.40405 c -1.9258,1.08227 -4.35737,1.57505 -5.82255,1.17999 z"
           id="path1417" />
        <path
           style="fill:#cc8213;fill-opacity:1;stroke-width:0.0989629"
           d="m 164.49959,101.92989 c -1.71801,-0.43606 -2.7089,-1.951599 -3.0381,-4.646733 -0.0655,-0.536472 -0.10243,-5.249032 -0.10243,-13.080687 0,-8.200376 -0.0352,-12.494952 -0.10653,-13.007977 -0.12785,-0.919265 -0.36761,-1.591665 -0.82694,-2.3192 l -0.34181,-0.541389 0.66238,-0.227855 c 1.14398,-0.393523 2.39795,-0.621953 3.74212,-0.681684 1.14523,-0.05089 1.38023,-0.03284 1.99205,0.152993 1.3715,0.41658 2.31484,1.385759 2.86597,2.944478 l 0.27614,0.780956 0.0306,5.031231 0.0306,5.03123 0.51375,-0.48436 c 2.67485,-2.521847 7.1719,-3.510896 9.94964,-2.188251 1.22678,0.584146 2.24166,1.93009 2.67679,3.550014 0.47981,1.786259 0.50761,2.588762 0.40613,11.722647 -0.0556,5.002917 -0.0384,5.16413 0.63655,5.952598 0.3262,0.381089 0.33669,0.414659 0.1753,0.560719 -0.29867,0.27029 -1.4244,0.74744 -2.2963,0.97331 -1.19975,0.31079 -2.69497,0.30535 -3.51012,-0.0128 -1.18773,-0.46352 -2.04313,-1.680042 -2.43103,-3.457315 -0.31063,-1.423257 -0.38294,-3.209448 -0.30083,-7.430773 0.10479,-5.386994 0.0288,-5.935066 -0.88908,-6.415055 -1.11929,-0.585287 -2.82038,0.0554 -4.42286,1.665801 l -0.51956,0.522122 7.5e-4,5.503047 c 4.6e-4,3.346216 0.0413,5.75516 0.10416,6.146304 0.12444,0.77411 0.44753,1.515682 0.86995,1.996797 l 0.31159,0.354882 -0.36198,0.27609 c -0.58205,0.44396 -1.63191,0.91726 -2.5221,1.13703 -0.937,0.23133 -2.98585,0.34126 -3.57472,0.19179 z"
           id="path1418" />
        <path
           style="fill:#cc8213;fill-opacity:1;stroke-width:0.0989629"
           d="m 194.3632,101.893 c -1.73011,-0.28721 -2.9706,-0.73832 -4.09556,-1.48937 -1.76897,-1.181013 -3.02227,-2.919788 -3.75381,-5.207879 -0.55809,-1.745582 -0.65757,-2.548307 -0.65532,-5.287929 0.002,-2.185906 0.0278,-2.592548 0.22306,-3.491249 0.92019,-4.234567 3.1764,-6.823574 6.86836,-7.881464 1.3266,-0.380123 2.3915,-0.48557 4.28319,-0.424123 2.99429,0.09726 4.99926,0.823572 6.69851,2.426562 1.59345,1.503175 2.56479,3.502303 3.01417,6.203461 0.25213,1.515599 0.25192,4.832887 -4.1e-4,6.234664 -0.8504,4.72426 -3.5803,7.807827 -7.76328,8.769047 -1.11982,0.25732 -3.68633,0.3363 -4.81891,0.14828 z m 3.26577,-5.606035 c 1.09019,-0.514996 2.09066,-1.855236 2.46889,-3.307354 0.4035,-1.549124 0.45104,-4.384096 0.10041,-5.987099 -0.41514,-1.897917 -1.29424,-2.998424 -2.66547,-3.336809 -1.42736,-0.352237 -2.99236,0.296709 -3.85701,1.59935 -0.74334,1.119885 -1.14227,2.761965 -1.14301,4.704847 -0.001,3.364882 0.88198,5.618238 2.50624,6.393811 0.44338,0.211708 0.61748,0.23918 1.30343,0.205673 0.56485,-0.02759 0.9335,-0.105653 1.28652,-0.272419 z"
           id="path1419" />
        <path
           style="fill:#cc8213;fill-opacity:1;stroke-width:0.0989629"
           d="m 213.01072,101.90232 c -1.26589,-0.36051 -2.18379,-1.35574 -2.62705,-2.848342 -0.35109,-1.182245 -0.36324,-1.445368 -0.4315,-9.344081 -0.057,-6.600806 -0.0933,-8.007526 -0.2179,-8.461331 -0.20111,-0.732341 -0.41459,-1.214597 -0.77223,-1.744512 l -0.29879,-0.442733 0.32167,-0.133703 c 2.31407,-0.961834 6.05598,-1.136435 7.58942,-0.354129 0.93492,0.476959 1.48504,1.249214 1.64126,2.303966 0.0383,0.258541 0.0761,0.470074 0.0839,0.470074 0.008,0 0.31049,-0.283344 0.67247,-0.629653 1.22256,-1.169615 2.68591,-1.978621 4.33785,-2.398148 0.56131,-0.142549 1.06788,-0.186413 2.07822,-0.179956 1.15252,0.0074 1.44125,0.04327 2.10237,0.261447 1.8087,0.596892 2.98268,1.857984 3.64005,3.910148 0.59389,1.853994 0.61703,2.159169 0.69253,9.130381 0.0423,3.903257 0.10898,6.517675 0.1717,6.729479 0.089,0.300714 0.10408,0.222445 0.114,-0.593777 0.006,-0.517082 0.0944,-1.340948 0.19578,-1.830815 0.21396,-1.033807 -0.0896,-0.222614 4.74166,-12.668696 2.41391,-6.218526 3.87775,-10.125507 4.07866,-10.885922 0.34494,-1.305525 0.48974,-3.034387 0.31646,-3.778405 l -0.0967,-0.415106 0.87068,-0.204412 c 2.20691,-0.51812 3.95383,-0.489697 5.54273,0.09018 1.10055,0.40165 1.8488,0.883587 2.8476,1.83408 3.4618,3.294397 5.4853,9.088497 7.54693,21.609915 0.72932,4.429554 1.44804,6.585807 2.64461,7.934171 l 0.3885,0.437787 0.17039,-0.586141 c 0.38913,-1.338541 1.17988,-2.444821 2.10563,-2.945834 1.26963,-0.687113 2.60782,-0.77046 5.47008,-0.340694 2.55483,0.383603 3.84902,0.485751 5.6026,0.442199 1.18801,-0.02951 1.69113,-0.08239 2.05883,-0.216401 0.73355,-0.267359 1.22737,-0.636995 1.52316,-1.140138 0.22183,-0.37734 0.26446,-0.562618 0.25493,-1.108071 -0.0184,-1.054245 -0.38103,-1.464785 -1.42352,-1.611708 -0.50793,-0.07158 -1.78078,0.04418 -4.20592,0.382533 -2.42457,0.33827 -3.12519,0.379283 -4.41937,0.258705 -1.33912,-0.124766 -2.59615,-0.461059 -3.64611,-0.975443 -1.02128,-0.500335 -2.2053,-1.670914 -2.69918,-2.668539 -0.54212,-1.095074 -0.70081,-1.971417 -0.63834,-3.525144 0.0292,-0.726199 0.12373,-1.56165 0.21425,-1.893431 0.82012,-3.005874 3.09874,-4.452334 7.97211,-5.060668 0.8982,-0.112122 2.79716,-0.176806 6.92775,-0.235981 5.6859,-0.08145 6.33424,-0.122812 7.49162,-0.477873 l 0.31681,-0.09719 0.0665,0.443544 c 0.0366,0.243948 0.0359,0.808017 -0.002,1.253486 -0.14743,1.75344 -0.63376,2.919793 -1.59071,3.814974 -1.09694,1.026133 -2.36811,1.36564 -4.74873,1.268301 -1.61074,-0.06586 -2.55114,-0.219853 -4.7997,-0.785959 -1.5198,-0.382632 -1.72884,-0.411395 -3.01837,-0.415313 -1.25428,-0.0038 -1.42964,0.01754 -1.85182,0.225479 -0.63076,0.310665 -0.88945,0.744293 -0.88945,1.490893 0,0.330992 0.0663,0.704893 0.15574,0.877781 0.4084,0.789759 1.59117,1.367115 3.02117,1.474748 0.41355,0.03113 1.46445,0.0052 2.33532,-0.0577 3.92514,-0.283319 4.5103,-0.304466 5.66378,-0.204687 3.69397,0.319541 5.66729,1.705196 6.27084,4.403354 0.20454,0.914392 0.15385,2.896338 -0.0987,3.859397 -0.91148,3.475732 -3.64806,5.373294 -8.87037,6.150794 -1.69788,0.25278 -6.06362,0.25078 -8.50746,-0.004 -2.53517,-0.2642 -4.61741,-0.16358 -6.11096,0.29531 -0.15699,0.0482 -0.17319,-0.0399 -0.17319,-0.94244 v -0.99564 l -0.45592,0.34801 c -1.16511,0.88935 -3.05,1.53199 -4.48612,1.52952 -2.53025,-0.004 -4.09851,-1.14023 -4.90092,-3.549639 -0.33417,-1.003424 -0.49611,-1.886772 -0.79626,-4.343284 -0.13786,-1.128269 -0.27288,-2.151597 -0.30004,-2.274064 l -0.0494,-0.222666 h -3.94127 -3.94126 l -0.71018,2.323042 c -0.3906,1.277673 -0.75612,2.558006 -0.81226,2.845184 -0.17694,0.905084 -0.12952,2.714248 0.0895,3.415047 l 0.19277,0.61675 -0.45914,0.27892 c -1.47826,0.89799 -3.40332,1.22256 -5.10868,0.86132 -0.92203,-0.1953 -1.59285,-0.53762 -2.15482,-1.0996 l -0.46413,-0.46412 -0.91162,0.42355 c -1.46699,0.68159 -2.21383,0.90674 -3.20064,0.96488 -2.22132,0.13086 -3.72805,-0.92399 -4.28892,-3.002663 -0.39889,-1.478354 -0.43338,-2.413513 -0.25251,-6.846432 0.16871,-4.135091 0.14834,-4.898278 -0.15949,-5.974312 -0.18691,-0.653336 -0.69769,-1.294349 -1.28633,-1.614292 -0.71901,-0.390797 -1.77571,-0.422627 -2.48166,-0.07475 -0.59818,0.294771 -1.29305,0.971776 -1.66734,1.624454 l -0.30248,0.527469 7.9e-4,5.591406 c 8.4e-4,5.964798 0.0309,6.410185 0.49547,7.337505 0.11878,0.237096 0.34876,0.570928 0.51106,0.741855 l 0.29511,0.31076 -0.45624,0.3139 c -0.66481,0.4574 -1.57883,0.86196 -2.48093,1.09809 -1.00035,0.26185 -2.96276,0.35059 -3.61914,0.16365 z m 34.37187,-17.149064 c 0.96612,-0.03424 1.75659,-0.07398 1.75659,-0.08831 0,-0.01433 -0.0695,-0.688674 -0.15452,-1.498548 -0.297,-2.830362 -0.72678,-4.761598 -1.33594,-6.002994 -0.31597,-0.643922 -0.56345,-1.026446 -0.61766,-0.954722 -0.0508,0.06718 -2.64647,8.544041 -2.64418,8.635168 0.001,0.04515 0.28041,0.05725 0.6206,0.02688 0.34018,-0.03037 1.40898,-0.08323 2.37511,-0.117478 z"
           id="path1420" />
        <path
           style="fill:#cc8213;fill-opacity:1;stroke-width:0.0989629"
           d="m 290.59765,101.9026 c -1.40622,-0.40135 -2.26691,-1.41832 -2.78109,-3.28604 -0.21337,-0.775094 -0.21934,-0.958833 -0.2843,-8.758219 -0.0554,-6.655682 -0.0914,-8.07236 -0.21856,-8.609775 -0.17401,-0.735441 -0.39687,-1.259075 -0.78384,-1.841812 l -0.27018,-0.406849 0.22528,-0.102647 c 0.41097,-0.187247 1.68167,-0.508136 2.6711,-0.674526 0.67928,-0.114234 1.34118,-0.151402 2.17718,-0.122255 1.10672,0.03858 1.25364,0.0671 1.86823,0.362549 1.17785,0.566226 2.08753,1.762529 2.4568,3.230873 0.092,0.365688 0.14088,2.573761 0.18747,8.461331 0.0488,6.172216 0.0923,8.055673 0.19301,8.362367 0.17994,0.547989 0.48618,1.134288 0.76938,1.472978 l 0.23867,0.285425 -0.22656,0.24115 c -0.32928,0.3505 -1.68816,0.98841 -2.60345,1.22216 -1.00974,0.25786 -2.97681,0.34661 -3.61914,0.16329 z"
           id="path1421" />
        <path
           style="fill:#cc8213;fill-opacity:1;stroke-width:0.0989629"
           d="m 294.90953,76.482032 c -0.54943,-0.388584 -1.70791,-0.648736 -3.43479,-0.771326 -1.70344,-0.120927 -2.33182,-0.239368 -2.96692,-0.559227 -0.8912,-0.448842 -1.25843,-1.220211 -1.33756,-2.809577 -0.0696,-1.397647 0.25808,-3.212974 0.87086,-4.824726 l 0.0962,-0.252967 0.26879,0.257322 c 0.55572,0.53203 2.07042,1.019558 4.50803,1.450976 1.67509,0.296464 2.18496,0.610573 2.65811,1.637544 0.21296,0.462228 0.22781,0.618646 0.2256,2.37511 -0.002,1.443188 -0.0445,2.075844 -0.18358,2.721481 -0.0997,0.462652 -0.20994,0.889373 -0.24504,0.94827 -0.0409,0.06862 -0.20603,0.0065 -0.45968,-0.17288 z"
           id="path1422" />
        <path
           style="fill:#cc8213;fill-opacity:1;stroke-width:0.0989629"
           d="m 305.46017,101.82841 c -1.48802,-0.38969 -2.56046,-1.04689 -3.68681,-2.259302 -2.05304,-2.209898 -3.04591,-5.472245 -2.92528,-9.611804 0.0556,-1.908297 0.22274,-3.032618 0.66198,-4.453332 0.57501,-1.859848 1.42736,-3.319017 2.66573,-4.563551 1.61954,-1.627612 3.5515,-2.496464 5.54944,-2.495729 1.0481,3.86e-4 1.71892,0.198156 2.62252,0.773176 0.485,0.308633 1.53393,1.364355 1.53393,1.543859 0,0.05004 0.0498,0.09099 0.11066,0.09099 0.16023,0 0.0141,-1.59965 -0.20644,-2.260363 l -0.17644,-0.528512 0.30929,-0.189742 c 0.74913,-0.459566 2.08175,-0.842881 3.41733,-0.982961 1.66001,-0.174106 3.11065,0.133165 3.93988,0.834538 0.42242,0.357288 0.88909,1.340891 1.01409,2.137411 0.0628,0.400066 0.10178,3.898307 0.10315,9.253034 0.002,7.263543 0.0252,8.707254 0.14919,9.2332 0.17895,0.759027 0.35097,1.103979 0.79638,1.596998 l 0.34131,0.37778 -0.36255,0.27654 c -0.59021,0.45017 -1.63845,0.91973 -2.57362,1.15286 -0.68552,0.1709 -1.17496,0.21918 -2.26046,0.22296 -1.29545,0.005 -1.42162,-0.0121 -1.94165,-0.25594 -0.3059,-0.14344 -0.73921,-0.42615 -0.96291,-0.62825 -0.45565,-0.41165 -1.0477,-1.506569 -1.15361,-2.133451 l -0.0697,-0.412321 -0.21223,0.430884 c -0.34712,0.704742 -1.78311,2.082458 -2.54659,2.443238 -1.31975,0.62365 -2.76743,0.76636 -4.13663,0.40779 z m 5.14049,-5.588902 c 0.5464,-0.192782 1.02027,-0.55631 1.38941,-1.065891 l 0.29278,-0.404179 -0.0274,-4.863191 -0.0274,-4.863191 -0.27788,-0.364233 c -0.41727,-0.546935 -0.97082,-0.793262 -1.80035,-0.801151 -1.18921,-0.01131 -2.11751,0.639389 -2.78223,1.950228 -0.60734,1.197685 -0.77293,2.12001 -0.77693,4.32733 -0.004,2.074065 0.0917,2.812915 0.51728,4.004869 0.40041,1.121372 0.80866,1.650847 1.56308,2.027229 0.47849,0.238722 1.33526,0.261891 1.92964,0.05218 z"
           id="path1423" />
      </g>
      <g
         id="g1432"
         transform="translate(-53.242057,-161.90336)"
         style="fill:#ffa218;fill-opacity:1">
        <path
           style="fill:#ffa218;fill-opacity:1;stroke-width:0.0989629"
           d="M 94.531123,101.92959 C 93.05628,101.55538 92.134101,100.39199 91.630326,98.270037 91.46765,97.584832 91.44947,96.507989 91.393071,84.217454 91.336298,71.845537 91.319565,70.865371 91.155772,70.317435 90.951874,69.635336 90.67716,69.060042 90.341457,68.612136 90.211382,68.438587 90.138536,68.276863 90.179575,68.25275 c 0.118676,-0.06973 1.744785,-0.455744 2.578741,-0.612157 2.316109,-0.434399 6.836004,-0.675449 9.895644,-0.527741 4.26843,0.206063 7.66668,1.658849 9.69107,4.143032 0.69131,0.848333 1.44914,2.386571 1.77829,3.609573 0.2499,0.928549 0.26669,1.124007 0.27199,3.166814 0.004,1.70965 -0.0319,2.361695 -0.16938,3.036402 -0.73368,3.601826 -2.57016,6.095456 -5.56463,7.555848 -2.15738,1.052143 -4.36636,1.550821 -7.50043,1.693229 l -1.455717,0.06614 7.47e-4,3.423592 c 4.15e-4,1.90006 0.04677,3.709849 0.104157,4.066851 0.116335,0.723663 0.441523,1.503747 0.850223,2.039578 l 0.27465,0.360089 -0.29326,0.23881 c -0.48345,0.39369 -1.824273,1.01082 -2.668369,1.22816 -0.898084,0.23124 -2.852199,0.33832 -3.442178,0.18862 z m 8.245757,-18.261865 c 1.44365,-0.324053 2.31595,-0.907237 2.84682,-1.903254 0.50067,-0.939354 0.65113,-1.671145 0.65544,-3.187904 0.005,-1.836783 -0.28969,-2.786904 -1.1571,-3.72794 -0.97761,-1.060571 -2.67237,-1.559465 -4.66369,-1.372863 l -0.753197,0.07058 v 5.20222 5.202218 l 1.166697,-0.05866 c 0.64168,-0.03226 1.49894,-0.133241 1.90503,-0.224397 z"
           id="path1424" />
        <path
           style="fill:#ffa218;fill-opacity:1;stroke-width:0.0989629"
           d="m 125.18811,110.48187 c -0.98332,-0.14077 -1.82931,-0.30152 -3.87015,-0.73542 -2.92321,-0.6215 -3.9359,-0.7448 -4.895,-0.59599 -0.7201,0.11173 -1.30913,0.33472 -1.76603,0.66857 l -0.23904,0.17466 0.0622,-1.13627 c 0.17676,-3.22962 1.43774,-5.07598 3.72458,-5.45364 0.97892,-0.16167 2.41965,0.0106 3.99774,0.47803 0.6624,0.1962 1.55278,0.46067 1.97861,0.58771 2.34194,0.69868 4.62494,0.43392 5.50989,-0.63896 0.56809,-0.68872 0.71797,-1.27792 0.76959,-3.02532 l 0.0464,-1.57191 -0.63068,0.640985 c -1.19111,1.210575 -2.4706,1.612125 -4.88609,1.533425 -2.43554,-0.0794 -3.85044,-0.60976 -5.20169,-1.949972 -0.89905,-0.891714 -1.46127,-1.906713 -1.85151,-3.342611 l -0.26153,-0.962299 -0.007,-6.135702 c -0.006,-5.423159 -0.0269,-6.244882 -0.18127,-7.075849 -0.23302,-1.254478 -0.50056,-2.113741 -0.86013,-2.762474 -0.16334,-0.294695 -0.28197,-0.550815 -0.26363,-0.569157 0.11307,-0.113068 2.39282,-0.355881 3.43084,-0.365413 2.25979,-0.02075 3.51638,0.539867 4.23069,1.887485 0.6777,1.278557 0.75997,2.253326 0.56838,6.733983 -0.26224,6.132632 -0.19497,7.664256 0.3871,8.812905 0.36366,0.717647 0.73873,0.949172 1.60884,0.993111 0.39031,0.01971 0.86572,-0.01567 1.05647,-0.07862 0.93602,-0.308915 1.58063,-1.186907 1.89298,-2.57834 0.35766,-1.593292 0.50785,-9.269554 0.217,-11.091144 -0.29257,-1.832415 -0.75259,-3.14046 -1.41448,-4.021982 l -0.23889,-0.318169 0.52195,-0.147171 c 1.54257,-0.434949 3.4969,-0.450716 4.63041,-0.03736 1.33917,0.488361 2.38767,1.431272 2.96614,2.667428 0.59327,1.267798 0.59158,1.239146 0.59175,10.028988 1.8e-4,9.595993 -0.0803,10.910023 -0.8089,13.211553 -0.79424,2.50877 -2.10369,4.19168 -4.03939,5.19143 -1.4361,0.74172 -2.45422,0.95982 -4.64887,0.99591 -1.00695,0.0165 -1.96441,0.011 -2.1277,-0.0124 z"
           id="path1425" />
        <path
           style="fill:#ffa218;fill-opacity:1;stroke-width:0.0989629"
           d="m 148.19,101.89546 c -1.60777,-0.4335 -2.54709,-1.7923 -2.91656,-4.219047 -0.11145,-0.732039 -0.14326,-2.124527 -0.14372,-6.290668 l -5.8e-4,-5.350521 -1.26178,-0.313074 c -1.49835,-0.371775 -2.46637,-0.729201 -3.14207,-1.160166 -0.67239,-0.428851 -0.80816,-0.603909 -0.97999,-1.263618 -0.1656,-0.635778 -0.41197,-3.740499 -0.31655,-3.989152 0.0478,-0.124662 0.13917,-0.14595 0.409,-0.09533 0.72538,0.136081 2.79879,0.349285 4.02779,0.414167 l 1.27856,0.0675 -0.0412,-4.295342 c -0.0344,-3.585824 -0.0683,-4.398025 -0.20498,-4.916975 -0.18314,-0.695134 -0.46176,-1.294823 -0.82918,-1.784717 -0.13535,-0.180471 -0.22969,-0.344541 -0.20963,-0.3646 0.13044,-0.130442 1.7998,-0.585749 2.73958,-0.747201 3.21022,-0.551513 5.07644,0.07721 6.13223,2.065918 0.61905,1.166044 0.64122,1.353536 0.68509,5.792053 l 0.04,4.042932 0.46311,-0.06863 c 1.55267,-0.230097 4.06641,-1.104037 4.81258,-1.673165 0.18593,-0.141816 0.37891,-0.257847 0.42885,-0.257847 0.0499,0 0.12076,0.812733 0.15737,1.806073 0.12294,3.335093 -0.19659,4.981381 -1.14153,5.881433 -0.64685,0.616127 -2.03484,1.105723 -3.59624,1.268537 -0.32658,0.03405 -0.71625,0.08495 -0.86593,0.113094 l -0.27215,0.05118 0.002,5.459839 c 0.002,5.823141 0.0334,6.281773 0.4964,7.205938 0.11878,0.237096 0.34543,0.567494 0.50367,0.734209 l 0.2877,0.30314 -0.71896,0.40405 c -1.9258,1.08227 -4.35737,1.57505 -5.82255,1.17999 z"
           id="path1426" />
        <path
           style="fill:#ffa218;fill-opacity:1;stroke-width:0.0989629"
           d="m 164.49959,101.92989 c -1.71801,-0.43606 -2.7089,-1.951599 -3.0381,-4.646733 -0.0655,-0.536472 -0.10243,-5.249032 -0.10243,-13.080687 0,-8.200376 -0.0352,-12.494952 -0.10653,-13.007977 -0.12785,-0.919265 -0.36761,-1.591665 -0.82694,-2.3192 l -0.34181,-0.541389 0.66238,-0.227855 c 1.14398,-0.393523 2.39795,-0.621953 3.74212,-0.681684 1.14523,-0.05089 1.38023,-0.03284 1.99205,0.152993 1.3715,0.41658 2.31484,1.385759 2.86597,2.944478 l 0.27614,0.780956 0.0306,5.031231 0.0306,5.03123 0.51375,-0.48436 c 2.67485,-2.521847 7.1719,-3.510896 9.94964,-2.188251 1.22678,0.584146 2.24166,1.93009 2.67679,3.550014 0.47981,1.786259 0.50761,2.588762 0.40613,11.722647 -0.0556,5.002917 -0.0384,5.16413 0.63655,5.952598 0.3262,0.381089 0.33669,0.414659 0.1753,0.560719 -0.29867,0.27029 -1.4244,0.74744 -2.2963,0.97331 -1.19975,0.31079 -2.69497,0.30535 -3.51012,-0.0128 -1.18773,-0.46352 -2.04313,-1.680042 -2.43103,-3.457315 -0.31063,-1.423257 -0.38294,-3.209448 -0.30083,-7.430773 0.10479,-5.386994 0.0288,-5.935066 -0.88908,-6.415055 -1.11929,-0.585287 -2.82038,0.0554 -4.42286,1.665801 l -0.51956,0.522122 7.5e-4,5.503047 c 4.6e-4,3.346216 0.0413,5.75516 0.10416,6.146304 0.12444,0.77411 0.44753,1.515682 0.86995,1.996797 l 0.31159,0.354882 -0.36198,0.27609 c -0.58205,0.44396 -1.63191,0.91726 -2.5221,1.13703 -0.937,0.23133 -2.98585,0.34126 -3.57472,0.19179 z"
           id="path1427" />
        <path
           style="fill:#ffa218;fill-opacity:1;stroke-width:0.0989629"
           d="m 194.3632,101.893 c -1.73011,-0.28721 -2.9706,-0.73832 -4.09556,-1.48937 -1.76897,-1.181013 -3.02227,-2.919788 -3.75381,-5.207879 -0.55809,-1.745582 -0.65757,-2.548307 -0.65532,-5.287929 0.002,-2.185906 0.0278,-2.592548 0.22306,-3.491249 0.92019,-4.234567 3.1764,-6.823574 6.86836,-7.881464 1.3266,-0.380123 2.3915,-0.48557 4.28319,-0.424123 2.99429,0.09726 4.99926,0.823572 6.69851,2.426562 1.59345,1.503175 2.56479,3.502303 3.01417,6.203461 0.25213,1.515599 0.25192,4.832887 -4.1e-4,6.234664 -0.8504,4.72426 -3.5803,7.807827 -7.76328,8.769047 -1.11982,0.25732 -3.68633,0.3363 -4.81891,0.14828 z m 3.26577,-5.606035 c 1.09019,-0.514996 2.09066,-1.855236 2.46889,-3.307354 0.4035,-1.549124 0.45104,-4.384096 0.10041,-5.987099 -0.41514,-1.897917 -1.29424,-2.998424 -2.66547,-3.336809 -1.42736,-0.352237 -2.99236,0.296709 -3.85701,1.59935 -0.74334,1.119885 -1.14227,2.761965 -1.14301,4.704847 -0.001,3.364882 0.88198,5.618238 2.50624,6.393811 0.44338,0.211708 0.61748,0.23918 1.30343,0.205673 0.56485,-0.02759 0.9335,-0.105653 1.28652,-0.272419 z"
           id="path1428" />
        <path
           style="fill:#ffa218;fill-opacity:1;stroke-width:0.0989629"
           d="m 213.01072,101.90232 c -1.26589,-0.36051 -2.18379,-1.35574 -2.62705,-2.848342 -0.35109,-1.182245 -0.36324,-1.445368 -0.4315,-9.344081 -0.057,-6.600806 -0.0933,-8.007526 -0.2179,-8.461331 -0.20111,-0.732341 -0.41459,-1.214597 -0.77223,-1.744512 l -0.29879,-0.442733 0.32167,-0.133703 c 2.31407,-0.961834 6.05598,-1.136435 7.58942,-0.354129 0.93492,0.476959 1.48504,1.249214 1.64126,2.303966 0.0383,0.258541 0.0761,0.470074 0.0839,0.470074 0.008,0 0.31049,-0.283344 0.67247,-0.629653 1.22256,-1.169615 2.68591,-1.978621 4.33785,-2.398148 0.56131,-0.142549 1.06788,-0.186413 2.07822,-0.179956 1.15252,0.0074 1.44125,0.04327 2.10237,0.261447 1.8087,0.596892 2.98268,1.857984 3.64005,3.910148 0.59389,1.853994 0.61703,2.159169 0.69253,9.130381 0.0423,3.903257 0.10898,6.517675 0.1717,6.729479 0.089,0.300714 0.10408,0.222445 0.114,-0.593777 0.006,-0.517082 0.0944,-1.340948 0.19578,-1.830815 0.21396,-1.033807 -0.0896,-0.222614 4.74166,-12.668696 2.41391,-6.218526 3.87775,-10.125507 4.07866,-10.885922 0.34494,-1.305525 0.48974,-3.034387 0.31646,-3.778405 l -0.0967,-0.415106 0.87068,-0.204412 c 2.20691,-0.51812 3.95383,-0.489697 5.54273,0.09018 1.10055,0.40165 1.8488,0.883587 2.8476,1.83408 3.4618,3.294397 5.4853,9.088497 7.54693,21.609915 0.72932,4.429554 1.44804,6.585807 2.64461,7.934171 l 0.3885,0.437787 0.17039,-0.586141 c 0.38913,-1.338541 1.17988,-2.444821 2.10563,-2.945834 1.26963,-0.687113 2.60782,-0.77046 5.47008,-0.340694 2.55483,0.383603 3.84902,0.485751 5.6026,0.442199 1.18801,-0.02951 1.69113,-0.08239 2.05883,-0.216401 0.73355,-0.267359 1.22737,-0.636995 1.52316,-1.140138 0.22183,-0.37734 0.26446,-0.562618 0.25493,-1.108071 -0.0184,-1.054245 -0.38103,-1.464785 -1.42352,-1.611708 -0.50793,-0.07158 -1.78078,0.04418 -4.20592,0.382533 -2.42457,0.33827 -3.12519,0.379283 -4.41937,0.258705 -1.33912,-0.124766 -2.59615,-0.461059 -3.64611,-0.975443 -1.02128,-0.500335 -2.2053,-1.670914 -2.69918,-2.668539 -0.54212,-1.095074 -0.70081,-1.971417 -0.63834,-3.525144 0.0292,-0.726199 0.12373,-1.56165 0.21425,-1.893431 0.82012,-3.005874 3.09874,-4.452334 7.97211,-5.060668 0.8982,-0.112122 2.79716,-0.176806 6.92775,-0.235981 5.6859,-0.08145 6.33424,-0.122812 7.49162,-0.477873 l 0.31681,-0.09719 0.0665,0.443544 c 0.0366,0.243948 0.0359,0.808017 -0.002,1.253486 -0.14743,1.75344 -0.63376,2.919793 -1.59071,3.814974 -1.09694,1.026133 -2.36811,1.36564 -4.74873,1.268301 -1.61074,-0.06586 -2.55114,-0.219853 -4.7997,-0.785959 -1.5198,-0.382632 -1.72884,-0.411395 -3.01837,-0.415313 -1.25428,-0.0038 -1.42964,0.01754 -1.85182,0.225479 -0.63076,0.310665 -0.88945,0.744293 -0.88945,1.490893 0,0.330992 0.0663,0.704893 0.15574,0.877781 0.4084,0.789759 1.59117,1.367115 3.02117,1.474748 0.41355,0.03113 1.46445,0.0052 2.33532,-0.0577 3.92514,-0.283319 4.5103,-0.304466 5.66378,-0.204687 3.69397,0.319541 5.66729,1.705196 6.27084,4.403354 0.20454,0.914392 0.15385,2.896338 -0.0987,3.859397 -0.91148,3.475732 -3.64806,5.373294 -8.87037,6.150794 -1.69788,0.25278 -6.06362,0.25078 -8.50746,-0.004 -2.53517,-0.2642 -4.61741,-0.16358 -6.11096,0.29531 -0.15699,0.0482 -0.17319,-0.0399 -0.17319,-0.94244 v -0.99564 l -0.45592,0.34801 c -1.16511,0.88935 -3.05,1.53199 -4.48612,1.52952 -2.53025,-0.004 -4.09851,-1.14023 -4.90092,-3.549639 -0.33417,-1.003424 -0.49611,-1.886772 -0.79626,-4.343284 -0.13786,-1.128269 -0.27288,-2.151597 -0.30004,-2.274064 l -0.0494,-0.222666 h -3.94127 -3.94126 l -0.71018,2.323042 c -0.3906,1.277673 -0.75612,2.558006 -0.81226,2.845184 -0.17694,0.905084 -0.12952,2.714248 0.0895,3.415047 l 0.19277,0.61675 -0.45914,0.27892 c -1.47826,0.89799 -3.40332,1.22256 -5.10868,0.86132 -0.92203,-0.1953 -1.59285,-0.53762 -2.15482,-1.0996 l -0.46413,-0.46412 -0.91162,0.42355 c -1.46699,0.68159 -2.21383,0.90674 -3.20064,0.96488 -2.22132,0.13086 -3.72805,-0.92399 -4.28892,-3.002663 -0.39889,-1.478354 -0.43338,-2.413513 -0.25251,-6.846432 0.16871,-4.135091 0.14834,-4.898278 -0.15949,-5.974312 -0.18691,-0.653336 -0.69769,-1.294349 -1.28633,-1.614292 -0.71901,-0.390797 -1.77571,-0.422627 -2.48166,-0.07475 -0.59818,0.294771 -1.29305,0.971776 -1.66734,1.624454 l -0.30248,0.527469 7.9e-4,5.591406 c 8.4e-4,5.964798 0.0309,6.410185 0.49547,7.337505 0.11878,0.237096 0.34876,0.570928 0.51106,0.741855 l 0.29511,0.31076 -0.45624,0.3139 c -0.66481,0.4574 -1.57883,0.86196 -2.48093,1.09809 -1.00035,0.26185 -2.96276,0.35059 -3.61914,0.16365 z m 34.37187,-17.149064 c 0.96612,-0.03424 1.75659,-0.07398 1.75659,-0.08831 0,-0.01433 -0.0695,-0.688674 -0.15452,-1.498548 -0.297,-2.830362 -0.72678,-4.761598 -1.33594,-6.002994 -0.31597,-0.643922 -0.56345,-1.026446 -0.61766,-0.954722 -0.0508,0.06718 -2.64647,8.544041 -2.64418,8.635168 0.001,0.04515 0.28041,0.05725 0.6206,0.02688 0.34018,-0.03037 1.40898,-0.08323 2.37511,-0.117478 z"
           id="path1429" />
        <path
           style="fill:#ffa218;fill-opacity:1;stroke-width:0.0989629"
           d="m 290.59765,101.9026 c -1.40622,-0.40135 -2.26691,-1.41832 -2.78109,-3.28604 -0.21337,-0.775094 -0.21934,-0.958833 -0.2843,-8.758219 -0.0554,-6.655682 -0.0914,-8.07236 -0.21856,-8.609775 -0.17401,-0.735441 -0.39687,-1.259075 -0.78384,-1.841812 l -0.27018,-0.406849 0.22528,-0.102647 c 0.41097,-0.187247 1.68167,-0.508136 2.6711,-0.674526 0.67928,-0.114234 1.34118,-0.151402 2.17718,-0.122255 1.10672,0.03858 1.25364,0.0671 1.86823,0.362549 1.17785,0.566226 2.08753,1.762529 2.4568,3.230873 0.092,0.365688 0.14088,2.573761 0.18747,8.461331 0.0488,6.172216 0.0923,8.055673 0.19301,8.362367 0.17994,0.547989 0.48618,1.134288 0.76938,1.472978 l 0.23867,0.285425 -0.22656,0.24115 c -0.32928,0.3505 -1.68816,0.98841 -2.60345,1.22216 -1.00974,0.25786 -2.97681,0.34661 -3.61914,0.16329 z"
           id="path1430" />
        <path
           style="fill:#ffa218;fill-opacity:1;stroke-width:0.0989629"
           d="m 294.90953,76.482032 c -0.54943,-0.388584 -1.70791,-0.648736 -3.43479,-0.771326 -1.70344,-0.120927 -2.33182,-0.239368 -2.96692,-0.559227 -0.8912,-0.448842 -1.25843,-1.220211 -1.33756,-2.809577 -0.0696,-1.397647 0.25808,-3.212974 0.87086,-4.824726 l 0.0962,-0.252967 0.26879,0.257322 c 0.55572,0.53203 2.07042,1.019558 4.50803,1.450976 1.67509,0.296464 2.18496,0.610573 2.65811,1.637544 0.21296,0.462228 0.22781,0.618646 0.2256,2.37511 -0.002,1.443188 -0.0445,2.075844 -0.18358,2.721481 -0.0997,0.462652 -0.20994,0.889373 -0.24504,0.94827 -0.0409,0.06862 -0.20603,0.0065 -0.45968,-0.17288 z"
           id="path1431" />
        <path
           style="fill:#ffa218;fill-opacity:1;stroke-width:0.0989629"
           d="m 305.46017,101.82841 c -1.48802,-0.38969 -2.56046,-1.04689 -3.68681,-2.259302 -2.05304,-2.209898 -3.04591,-5.472245 -2.92528,-9.611804 0.0556,-1.908297 0.22274,-3.032618 0.66198,-4.453332 0.57501,-1.859848 1.42736,-3.319017 2.66573,-4.563551 1.61954,-1.627612 3.5515,-2.496464 5.54944,-2.495729 1.0481,3.86e-4 1.71892,0.198156 2.62252,0.773176 0.485,0.308633 1.53393,1.364355 1.53393,1.543859 0,0.05004 0.0498,0.09099 0.11066,0.09099 0.16023,0 0.0141,-1.59965 -0.20644,-2.260363 l -0.17644,-0.528512 0.30929,-0.189742 c 0.74913,-0.459566 2.08175,-0.842881 3.41733,-0.982961 1.66001,-0.174106 3.11065,0.133165 3.93988,0.834538 0.42242,0.357288 0.88909,1.340891 1.01409,2.137411 0.0628,0.400066 0.10178,3.898307 0.10315,9.253034 0.002,7.263543 0.0252,8.707254 0.14919,9.2332 0.17895,0.759027 0.35097,1.103979 0.79638,1.596998 l 0.34131,0.37778 -0.36255,0.27654 c -0.59021,0.45017 -1.63845,0.91973 -2.57362,1.15286 -0.68552,0.1709 -1.17496,0.21918 -2.26046,0.22296 -1.29545,0.005 -1.42162,-0.0121 -1.94165,-0.25594 -0.3059,-0.14344 -0.73921,-0.42615 -0.96291,-0.62825 -0.45565,-0.41165 -1.0477,-1.506569 -1.15361,-2.133451 l -0.0697,-0.412321 -0.21223,0.430884 c -0.34712,0.704742 -1.78311,2.082458 -2.54659,2.443238 -1.31975,0.62365 -2.76743,0.76636 -4.13663,0.40779 z m 5.14049,-5.588902 c 0.5464,-0.192782 1.02027,-0.55631 1.38941,-1.065891 l 0.29278,-0.404179 -0.0274,-4.863191 -0.0274,-4.863191 -0.27788,-0.364233 c -0.41727,-0.546935 -0.97082,-0.793262 -1.80035,-0.801151 -1.18921,-0.01131 -2.11751,0.639389 -2.78223,1.950228 -0.60734,1.197685 -0.77293,2.12001 -0.77693,4.32733 -0.004,2.074065 0.0917,2.812915 0.51728,4.004869 0.40041,1.121372 0.80866,1.650847 1.56308,2.027229 0.47849,0.238722 1.33526,0.261891 1.92964,0.05218 z"
           id="path1432" />
      </g>
      <g
         id="g1441"
         transform="translate(-53.242057,-161.90336)"
         style="fill:#ffa218;fill-opacity:1">
        <path
           style="fill:#ffa218;fill-opacity:1;stroke-width:0.0989629"
           d="M 94.531123,101.92959 C 93.05628,101.55538 92.134101,100.39199 91.630326,98.270037 91.46765,97.584832 91.44947,96.507989 91.393071,84.217454 91.336298,71.845537 91.319565,70.865371 91.155772,70.317435 90.951874,69.635336 90.67716,69.060042 90.341457,68.612136 90.211382,68.438587 90.138536,68.276863 90.179575,68.25275 c 0.118676,-0.06973 1.744785,-0.455744 2.578741,-0.612157 2.316109,-0.434399 6.836004,-0.675449 9.895644,-0.527741 4.26843,0.206063 7.66668,1.658849 9.69107,4.143032 0.69131,0.848333 1.44914,2.386571 1.77829,3.609573 0.2499,0.928549 0.26669,1.124007 0.27199,3.166814 0.004,1.70965 -0.0319,2.361695 -0.16938,3.036402 -0.73368,3.601826 -2.57016,6.095456 -5.56463,7.555848 -2.15738,1.052143 -4.36636,1.550821 -7.50043,1.693229 l -1.455717,0.06614 7.47e-4,3.423592 c 4.15e-4,1.90006 0.04677,3.709849 0.104157,4.066851 0.116335,0.723663 0.441523,1.503747 0.850223,2.039578 l 0.27465,0.360089 -0.29326,0.23881 c -0.48345,0.39369 -1.824273,1.01082 -2.668369,1.22816 -0.898084,0.23124 -2.852199,0.33832 -3.442178,0.18862 z m 8.245757,-18.261865 c 1.44365,-0.324053 2.31595,-0.907237 2.84682,-1.903254 0.50067,-0.939354 0.65113,-1.671145 0.65544,-3.187904 0.005,-1.836783 -0.28969,-2.786904 -1.1571,-3.72794 -0.97761,-1.060571 -2.67237,-1.559465 -4.66369,-1.372863 l -0.753197,0.07058 v 5.20222 5.202218 l 1.166697,-0.05866 c 0.64168,-0.03226 1.49894,-0.133241 1.90503,-0.224397 z"
           id="path1433" />
        <path
           style="fill:#ffa218;fill-opacity:1;stroke-width:0.0989629"
           d="m 125.18811,110.48187 c -0.98332,-0.14077 -1.82931,-0.30152 -3.87015,-0.73542 -2.92321,-0.6215 -3.9359,-0.7448 -4.895,-0.59599 -0.7201,0.11173 -1.30913,0.33472 -1.76603,0.66857 l -0.23904,0.17466 0.0622,-1.13627 c 0.17676,-3.22962 1.43774,-5.07598 3.72458,-5.45364 0.97892,-0.16167 2.41965,0.0106 3.99774,0.47803 0.6624,0.1962 1.55278,0.46067 1.97861,0.58771 2.34194,0.69868 4.62494,0.43392 5.50989,-0.63896 0.56809,-0.68872 0.71797,-1.27792 0.76959,-3.02532 l 0.0464,-1.57191 -0.63068,0.640985 c -1.19111,1.210575 -2.4706,1.612125 -4.88609,1.533425 -2.43554,-0.0794 -3.85044,-0.60976 -5.20169,-1.949972 -0.89905,-0.891714 -1.46127,-1.906713 -1.85151,-3.342611 l -0.26153,-0.962299 -0.007,-6.135702 c -0.006,-5.423159 -0.0269,-6.244882 -0.18127,-7.075849 -0.23302,-1.254478 -0.50056,-2.113741 -0.86013,-2.762474 -0.16334,-0.294695 -0.28197,-0.550815 -0.26363,-0.569157 0.11307,-0.113068 2.39282,-0.355881 3.43084,-0.365413 2.25979,-0.02075 3.51638,0.539867 4.23069,1.887485 0.6777,1.278557 0.75997,2.253326 0.56838,6.733983 -0.26224,6.132632 -0.19497,7.664256 0.3871,8.812905 0.36366,0.717647 0.73873,0.949172 1.60884,0.993111 0.39031,0.01971 0.86572,-0.01567 1.05647,-0.07862 0.93602,-0.308915 1.58063,-1.186907 1.89298,-2.57834 0.35766,-1.593292 0.50785,-9.269554 0.217,-11.091144 -0.29257,-1.832415 -0.75259,-3.14046 -1.41448,-4.021982 l -0.23889,-0.318169 0.52195,-0.147171 c 1.54257,-0.434949 3.4969,-0.450716 4.63041,-0.03736 1.33917,0.488361 2.38767,1.431272 2.96614,2.667428 0.59327,1.267798 0.59158,1.239146 0.59175,10.028988 1.8e-4,9.595993 -0.0803,10.910023 -0.8089,13.211553 -0.79424,2.50877 -2.10369,4.19168 -4.03939,5.19143 -1.4361,0.74172 -2.45422,0.95982 -4.64887,0.99591 -1.00695,0.0165 -1.96441,0.011 -2.1277,-0.0124 z"
           id="path1434" />
        <path
           style="fill:#ffa218;fill-opacity:1;stroke-width:0.0989629"
           d="m 148.19,101.89546 c -1.60777,-0.4335 -2.54709,-1.7923 -2.91656,-4.219047 -0.11145,-0.732039 -0.14326,-2.124527 -0.14372,-6.290668 l -5.8e-4,-5.350521 -1.26178,-0.313074 c -1.49835,-0.371775 -2.46637,-0.729201 -3.14207,-1.160166 -0.67239,-0.428851 -0.80816,-0.603909 -0.97999,-1.263618 -0.1656,-0.635778 -0.41197,-3.740499 -0.31655,-3.989152 0.0478,-0.124662 0.13917,-0.14595 0.409,-0.09533 0.72538,0.136081 2.79879,0.349285 4.02779,0.414167 l 1.27856,0.0675 -0.0412,-4.295342 c -0.0344,-3.585824 -0.0683,-4.398025 -0.20498,-4.916975 -0.18314,-0.695134 -0.46176,-1.294823 -0.82918,-1.784717 -0.13535,-0.180471 -0.22969,-0.344541 -0.20963,-0.3646 0.13044,-0.130442 1.7998,-0.585749 2.73958,-0.747201 3.21022,-0.551513 5.07644,0.07721 6.13223,2.065918 0.61905,1.166044 0.64122,1.353536 0.68509,5.792053 l 0.04,4.042932 0.46311,-0.06863 c 1.55267,-0.230097 4.06641,-1.104037 4.81258,-1.673165 0.18593,-0.141816 0.37891,-0.257847 0.42885,-0.257847 0.0499,0 0.12076,0.812733 0.15737,1.806073 0.12294,3.335093 -0.19659,4.981381 -1.14153,5.881433 -0.64685,0.616127 -2.03484,1.105723 -3.59624,1.268537 -0.32658,0.03405 -0.71625,0.08495 -0.86593,0.113094 l -0.27215,0.05118 0.002,5.459839 c 0.002,5.823141 0.0334,6.281773 0.4964,7.205938 0.11878,0.237096 0.34543,0.567494 0.50367,0.734209 l 0.2877,0.30314 -0.71896,0.40405 c -1.9258,1.08227 -4.35737,1.57505 -5.82255,1.17999 z"
           id="path1435" />
        <path
           style="fill:#ffa218;fill-opacity:1;stroke-width:0.0989629"
           d="m 164.49959,101.92989 c -1.71801,-0.43606 -2.7089,-1.951599 -3.0381,-4.646733 -0.0655,-0.536472 -0.10243,-5.249032 -0.10243,-13.080687 0,-8.200376 -0.0352,-12.494952 -0.10653,-13.007977 -0.12785,-0.919265 -0.36761,-1.591665 -0.82694,-2.3192 l -0.34181,-0.541389 0.66238,-0.227855 c 1.14398,-0.393523 2.39795,-0.621953 3.74212,-0.681684 1.14523,-0.05089 1.38023,-0.03284 1.99205,0.152993 1.3715,0.41658 2.31484,1.385759 2.86597,2.944478 l 0.27614,0.780956 0.0306,5.031231 0.0306,5.03123 0.51375,-0.48436 c 2.67485,-2.521847 7.1719,-3.510896 9.94964,-2.188251 1.22678,0.584146 2.24166,1.93009 2.67679,3.550014 0.47981,1.786259 0.50761,2.588762 0.40613,11.722647 -0.0556,5.002917 -0.0384,5.16413 0.63655,5.952598 0.3262,0.381089 0.33669,0.414659 0.1753,0.560719 -0.29867,0.27029 -1.4244,0.74744 -2.2963,0.97331 -1.19975,0.31079 -2.69497,0.30535 -3.51012,-0.0128 -1.18773,-0.46352 -2.04313,-1.680042 -2.43103,-3.457315 -0.31063,-1.423257 -0.38294,-3.209448 -0.30083,-7.430773 0.10479,-5.386994 0.0288,-5.935066 -0.88908,-6.415055 -1.11929,-0.585287 -2.82038,0.0554 -4.42286,1.665801 l -0.51956,0.522122 7.5e-4,5.503047 c 4.6e-4,3.346216 0.0413,5.75516 0.10416,6.146304 0.12444,0.77411 0.44753,1.515682 0.86995,1.996797 l 0.31159,0.354882 -0.36198,0.27609 c -0.58205,0.44396 -1.63191,0.91726 -2.5221,1.13703 -0.937,0.23133 -2.98585,0.34126 -3.57472,0.19179 z"
           id="path1436" />
        <path
           style="fill:#ffa218;fill-opacity:1;stroke-width:0.0989629"
           d="m 194.3632,101.893 c -1.73011,-0.28721 -2.9706,-0.73832 -4.09556,-1.48937 -1.76897,-1.181013 -3.02227,-2.919788 -3.75381,-5.207879 -0.55809,-1.745582 -0.65757,-2.548307 -0.65532,-5.287929 0.002,-2.185906 0.0278,-2.592548 0.22306,-3.491249 0.92019,-4.234567 3.1764,-6.823574 6.86836,-7.881464 1.3266,-0.380123 2.3915,-0.48557 4.28319,-0.424123 2.99429,0.09726 4.99926,0.823572 6.69851,2.426562 1.59345,1.503175 2.56479,3.502303 3.01417,6.203461 0.25213,1.515599 0.25192,4.832887 -4.1e-4,6.234664 -0.8504,4.72426 -3.5803,7.807827 -7.76328,8.769047 -1.11982,0.25732 -3.68633,0.3363 -4.81891,0.14828 z m 3.26577,-5.606035 c 1.09019,-0.514996 2.09066,-1.855236 2.46889,-3.307354 0.4035,-1.549124 0.45104,-4.384096 0.10041,-5.987099 -0.41514,-1.897917 -1.29424,-2.998424 -2.66547,-3.336809 -1.42736,-0.352237 -2.99236,0.296709 -3.85701,1.59935 -0.74334,1.119885 -1.14227,2.761965 -1.14301,4.704847 -0.001,3.364882 0.88198,5.618238 2.50624,6.393811 0.44338,0.211708 0.61748,0.23918 1.30343,0.205673 0.56485,-0.02759 0.9335,-0.105653 1.28652,-0.272419 z"
           id="path1437" />
        <path
           style="fill:#ffa218;fill-opacity:1;stroke-width:0.0989629"
           d="m 213.01072,101.90232 c -1.26589,-0.36051 -2.18379,-1.35574 -2.62705,-2.848342 -0.35109,-1.182245 -0.36324,-1.445368 -0.4315,-9.344081 -0.057,-6.600806 -0.0933,-8.007526 -0.2179,-8.461331 -0.20111,-0.732341 -0.41459,-1.214597 -0.77223,-1.744512 l -0.29879,-0.442733 0.32167,-0.133703 c 2.31407,-0.961834 6.05598,-1.136435 7.58942,-0.354129 0.93492,0.476959 1.48504,1.249214 1.64126,2.303966 0.0383,0.258541 0.0761,0.470074 0.0839,0.470074 0.008,0 0.31049,-0.283344 0.67247,-0.629653 1.22256,-1.169615 2.68591,-1.978621 4.33785,-2.398148 0.56131,-0.142549 1.06788,-0.186413 2.07822,-0.179956 1.15252,0.0074 1.44125,0.04327 2.10237,0.261447 1.8087,0.596892 2.98268,1.857984 3.64005,3.910148 0.59389,1.853994 0.61703,2.159169 0.69253,9.130381 0.0423,3.903257 0.10898,6.517675 0.1717,6.729479 0.089,0.300714 0.10408,0.222445 0.114,-0.593777 0.006,-0.517082 0.0944,-1.340948 0.19578,-1.830815 0.21396,-1.033807 -0.0896,-0.222614 4.74166,-12.668696 2.41391,-6.218526 3.87775,-10.125507 4.07866,-10.885922 0.34494,-1.305525 0.48974,-3.034387 0.31646,-3.778405 l -0.0967,-0.415106 0.87068,-0.204412 c 2.20691,-0.51812 3.95383,-0.489697 5.54273,0.09018 1.10055,0.40165 1.8488,0.883587 2.8476,1.83408 3.4618,3.294397 5.4853,9.088497 7.54693,21.609915 0.72932,4.429554 1.44804,6.585807 2.64461,7.934171 l 0.3885,0.437787 0.17039,-0.586141 c 0.38913,-1.338541 1.17988,-2.444821 2.10563,-2.945834 1.26963,-0.687113 2.60782,-0.77046 5.47008,-0.340694 2.55483,0.383603 3.84902,0.485751 5.6026,0.442199 1.18801,-0.02951 1.69113,-0.08239 2.05883,-0.216401 0.73355,-0.267359 1.22737,-0.636995 1.52316,-1.140138 0.22183,-0.37734 0.26446,-0.562618 0.25493,-1.108071 -0.0184,-1.054245 -0.38103,-1.464785 -1.42352,-1.611708 -0.50793,-0.07158 -1.78078,0.04418 -4.20592,0.382533 -2.42457,0.33827 -3.12519,0.379283 -4.41937,0.258705 -1.33912,-0.124766 -2.59615,-0.461059 -3.64611,-0.975443 -1.02128,-0.500335 -2.2053,-1.670914 -2.69918,-2.668539 -0.54212,-1.095074 -0.70081,-1.971417 -0.63834,-3.525144 0.0292,-0.726199 0.12373,-1.56165 0.21425,-1.893431 0.82012,-3.005874 3.09874,-4.452334 7.97211,-5.060668 0.8982,-0.112122 2.79716,-0.176806 6.92775,-0.235981 5.6859,-0.08145 6.33424,-0.122812 7.49162,-0.477873 l 0.31681,-0.09719 0.0665,0.443544 c 0.0366,0.243948 0.0359,0.808017 -0.002,1.253486 -0.14743,1.75344 -0.63376,2.919793 -1.59071,3.814974 -1.09694,1.026133 -2.36811,1.36564 -4.74873,1.268301 -1.61074,-0.06586 -2.55114,-0.219853 -4.7997,-0.785959 -1.5198,-0.382632 -1.72884,-0.411395 -3.01837,-0.415313 -1.25428,-0.0038 -1.42964,0.01754 -1.85182,0.225479 -0.63076,0.310665 -0.88945,0.744293 -0.88945,1.490893 0,0.330992 0.0663,0.704893 0.15574,0.877781 0.4084,0.789759 1.59117,1.367115 3.02117,1.474748 0.41355,0.03113 1.46445,0.0052 2.33532,-0.0577 3.92514,-0.283319 4.5103,-0.304466 5.66378,-0.204687 3.69397,0.319541 5.66729,1.705196 6.27084,4.403354 0.20454,0.914392 0.15385,2.896338 -0.0987,3.859397 -0.91148,3.475732 -3.64806,5.373294 -8.87037,6.150794 -1.69788,0.25278 -6.06362,0.25078 -8.50746,-0.004 -2.53517,-0.2642 -4.61741,-0.16358 -6.11096,0.29531 -0.15699,0.0482 -0.17319,-0.0399 -0.17319,-0.94244 v -0.99564 l -0.45592,0.34801 c -1.16511,0.88935 -3.05,1.53199 -4.48612,1.52952 -2.53025,-0.004 -4.09851,-1.14023 -4.90092,-3.549639 -0.33417,-1.003424 -0.49611,-1.886772 -0.79626,-4.343284 -0.13786,-1.128269 -0.27288,-2.151597 -0.30004,-2.274064 l -0.0494,-0.222666 h -3.94127 -3.94126 l -0.71018,2.323042 c -0.3906,1.277673 -0.75612,2.558006 -0.81226,2.845184 -0.17694,0.905084 -0.12952,2.714248 0.0895,3.415047 l 0.19277,0.61675 -0.45914,0.27892 c -1.47826,0.89799 -3.40332,1.22256 -5.10868,0.86132 -0.92203,-0.1953 -1.59285,-0.53762 -2.15482,-1.0996 l -0.46413,-0.46412 -0.91162,0.42355 c -1.46699,0.68159 -2.21383,0.90674 -3.20064,0.96488 -2.22132,0.13086 -3.72805,-0.92399 -4.28892,-3.002663 -0.39889,-1.478354 -0.43338,-2.413513 -0.25251,-6.846432 0.16871,-4.135091 0.14834,-4.898278 -0.15949,-5.974312 -0.18691,-0.653336 -0.69769,-1.294349 -1.28633,-1.614292 -0.71901,-0.390797 -1.77571,-0.422627 -2.48166,-0.07475 -0.59818,0.294771 -1.29305,0.971776 -1.66734,1.624454 l -0.30248,0.527469 7.9e-4,5.591406 c 8.4e-4,5.964798 0.0309,6.410185 0.49547,7.337505 0.11878,0.237096 0.34876,0.570928 0.51106,0.741855 l 0.29511,0.31076 -0.45624,0.3139 c -0.66481,0.4574 -1.57883,0.86196 -2.48093,1.09809 -1.00035,0.26185 -2.96276,0.35059 -3.61914,0.16365 z m 34.37187,-17.149064 c 0.96612,-0.03424 1.75659,-0.07398 1.75659,-0.08831 0,-0.01433 -0.0695,-0.688674 -0.15452,-1.498548 -0.297,-2.830362 -0.72678,-4.761598 -1.33594,-6.002994 -0.31597,-0.643922 -0.56345,-1.026446 -0.61766,-0.954722 -0.0508,0.06718 -2.64647,8.544041 -2.64418,8.635168 0.001,0.04515 0.28041,0.05725 0.6206,0.02688 0.34018,-0.03037 1.40898,-0.08323 2.37511,-0.117478 z"
           id="path1438" />
        <path
           style="fill:#ffa218;fill-opacity:1;stroke-width:0.0989629"
           d="m 290.59765,101.9026 c -1.40622,-0.40135 -2.26691,-1.41832 -2.78109,-3.28604 -0.21337,-0.775094 -0.21934,-0.958833 -0.2843,-8.758219 -0.0554,-6.655682 -0.0914,-8.07236 -0.21856,-8.609775 -0.17401,-0.735441 -0.39687,-1.259075 -0.78384,-1.841812 l -0.27018,-0.406849 0.22528,-0.102647 c 0.41097,-0.187247 1.68167,-0.508136 2.6711,-0.674526 0.67928,-0.114234 1.34118,-0.151402 2.17718,-0.122255 1.10672,0.03858 1.25364,0.0671 1.86823,0.362549 1.17785,0.566226 2.08753,1.762529 2.4568,3.230873 0.092,0.365688 0.14088,2.573761 0.18747,8.461331 0.0488,6.172216 0.0923,8.055673 0.19301,8.362367 0.17994,0.547989 0.48618,1.134288 0.76938,1.472978 l 0.23867,0.285425 -0.22656,0.24115 c -0.32928,0.3505 -1.68816,0.98841 -2.60345,1.22216 -1.00974,0.25786 -2.97681,0.34661 -3.61914,0.16329 z"
           id="path1439" />
        <path
           style="fill:#ffa218;fill-opacity:1;stroke-width:0.0989629"
           d="m 294.90953,76.482032 c -0.54943,-0.388584 -1.70791,-0.648736 -3.43479,-0.771326 -1.70344,-0.120927 -2.33182,-0.239368 -2.96692,-0.559227 -0.8912,-0.448842 -1.25843,-1.220211 -1.33756,-2.809577 -0.0696,-1.397647 0.25808,-3.212974 0.87086,-4.824726 l 0.0962,-0.252967 0.26879,0.257322 c 0.55572,0.53203 2.07042,1.019558 4.50803,1.450976 1.67509,0.296464 2.18496,0.610573 2.65811,1.637544 0.21296,0.462228 0.22781,0.618646 0.2256,2.37511 -0.002,1.443188 -0.0445,2.075844 -0.18358,2.721481 -0.0997,0.462652 -0.20994,0.889373 -0.24504,0.94827 -0.0409,0.06862 -0.20603,0.0065 -0.45968,-0.17288 z"
           id="path1440" />
        <path
           style="fill:#ffa218;fill-opacity:1;stroke-width:0.0989629"
           d="m 305.46017,101.82841 c -1.48802,-0.38969 -2.56046,-1.04689 -3.68681,-2.259302 -2.05304,-2.209898 -3.04591,-5.472245 -2.92528,-9.611804 0.0556,-1.908297 0.22274,-3.032618 0.66198,-4.453332 0.57501,-1.859848 1.42736,-3.319017 2.66573,-4.563551 1.61954,-1.627612 3.5515,-2.496464 5.54944,-2.495729 1.0481,3.86e-4 1.71892,0.198156 2.62252,0.773176 0.485,0.308633 1.53393,1.364355 1.53393,1.543859 0,0.05004 0.0498,0.09099 0.11066,0.09099 0.16023,0 0.0141,-1.59965 -0.20644,-2.260363 l -0.17644,-0.528512 0.30929,-0.189742 c 0.74913,-0.459566 2.08175,-0.842881 3.41733,-0.982961 1.66001,-0.174106 3.11065,0.133165 3.93988,0.834538 0.42242,0.357288 0.88909,1.340891 1.01409,2.137411 0.0628,0.400066 0.10178,3.898307 0.10315,9.253034 0.002,7.263543 0.0252,8.707254 0.14919,9.2332 0.17895,0.759027 0.35097,1.103979 0.79638,1.596998 l 0.34131,0.37778 -0.36255,0.27654 c -0.59021,0.45017 -1.63845,0.91973 -2.57362,1.15286 -0.68552,0.1709 -1.17496,0.21918 -2.26046,0.22296 -1.29545,0.005 -1.42162,-0.0121 -1.94165,-0.25594 -0.3059,-0.14344 -0.73921,-0.42615 -0.96291,-0.62825 -0.45565,-0.41165 -1.0477,-1.506569 -1.15361,-2.133451 l -0.0697,-0.412321 -0.21223,0.430884 c -0.34712,0.704742 -1.78311,2.082458 -2.54659,2.443238 -1.31975,0.62365 -2.76743,0.76636 -4.13663,0.40779 z m 5.14049,-5.588902 c 0.5464,-0.192782 1.02027,-0.55631 1.38941,-1.065891 l 0.29278,-0.404179 -0.0274,-4.863191 -0.0274,-4.863191 -0.27788,-0.364233 c -0.41727,-0.546935 -0.97082,-0.793262 -1.80035,-0.801151 -1.18921,-0.01131 -2.11751,0.639389 -2.78223,1.950228 -0.60734,1.197685 -0.77293,2.12001 -0.77693,4.32733 -0.004,2.074065 0.0917,2.812915 0.51728,4.004869 0.40041,1.121372 0.80866,1.650847 1.56308,2.027229 0.47849,0.238722 1.33526,0.261891 1.92964,0.05218 z"
           id="path1441" />
      </g>
    </g>
    <g
       id="g1452"
       transform="translate(28.501324,-116.33892)">
      <g
         id="g1451"
         transform="translate(-15.44987,-781.41296)"
         style="fill:#bf5617;fill-opacity:1">
        <path
           style="fill:#bf5617;fill-opacity:1;stroke-width:0.791703"
           d="m 541.88545,561.60597 c -0.88996,-9.49726 -0.0272,-14.83242 3.58593,-22.17462 4.48937,-9.12282 11.75038,-16.55455 28.08425,-28.7446 14.00349,-10.45087 18.8053,-14.97472 20.69473,-19.49677 2.41408,-5.7777 0.44522,-12.34511 -4.43129,-14.7812 -3.32555,-1.6613 -10.10774,-1.81581 -13.70624,-0.31226 -5.78626,2.41765 -10.47971,9.58099 -11.41154,17.41673 l -0.4572,3.84467 -2.76171,-0.44817 c -3.82093,-0.62005 -8.45362,-3.86986 -10.99846,-7.71538 -5.80779,-8.77616 -1.77709,-20.93333 9.41932,-28.41 6.9174,-4.61927 13.58424,-6.50668 23.18635,-6.56416 16.62731,-0.0995 29.53612,6.33789 34.96656,17.43732 2.54942,5.21082 3.36726,14.64965 1.88711,21.77949 -2.56362,12.34889 -11.78874,22.95722 -30.97487,35.61923 -11.75101,7.75516 -16.91432,12.40273 -17.82934,16.04848 -0.66968,2.66819 -0.34086,2.88435 2.89838,1.90535 1.49519,-0.4519 9.48759,-1.14018 17.76089,-1.52953 15.83892,-0.74539 21.44146,-1.82627 25.33307,-4.8874 l 2.19557,-1.72704 -0.54751,5.48597 c -1.12746,11.29684 -4.68852,18.54953 -10.75121,21.89663 -3.0635,1.69131 -8.45092,1.65174 -31.27228,-0.22968 -12.80936,-1.05602 -30.08766,-0.69774 -32.59096,0.6758 -1.67258,0.91772 -1.72835,0.79323 -2.27955,-5.08886 z"
           id="path1448" />
        <path
           style="fill:#bf5617;fill-opacity:1;stroke-width:0.791703"
           d="m 657.11386,566.39138 c -14.88052,-3.94974 -25.4205,-15.2641 -29.66653,-31.84617 -2.02527,-7.90928 -2.86503,-20.78375 -1.99733,-30.62117 1.35775,-15.39331 5.25155,-25.78804 12.72188,-33.96177 6.89121,-7.54008 15.29987,-11.33169 26.86137,-12.11223 23.54644,-1.58968 40.91451,11.55482 46.44973,35.15408 2.02939,8.65231 2.04326,30.53873 0.0248,39.13633 -5.34772,22.7783 -20.99047,35.58111 -43.31005,35.44712 -3.70122,-0.0222 -8.68895,-0.56051 -11.08385,-1.19619 z m 18.70059,-18.57886 c 9.59175,-4.64328 15.29786,-17.64095 15.32891,-34.91697 0.043,-23.95142 -9.48585,-37.82345 -24.74044,-36.01677 -12.36839,1.46485 -19.58502,14.94553 -19.56148,36.5409 0.0181,16.61073 5.96817,30.15536 15.25972,34.73701 3.58282,1.76667 9.66837,1.61395 13.71329,-0.34417 z"
           id="path1449" />
        <path
           style="fill:#bf5617;fill-opacity:1;stroke-width:0.791703"
           d="m 762.80627,566.4159 c -13.55082,-1.23514 -30.45753,-1.38003 -35.13737,-0.30112 -1.90807,0.4399 -3.67752,0.59151 -3.93212,0.33691 -0.25459,-0.25458 -0.60449,-3.98816 -0.77755,-8.29682 -0.25366,-6.31535 0.005,-8.88465 1.33174,-13.25433 3.70725,-12.2053 11.64313,-20.5945 36.93189,-39.04155 10.95294,-7.9897 14.91779,-13.23804 14.92241,-19.75308 0.005,-7.22618 -4.24765,-11.08384 -12.21906,-11.08384 -5.45051,0 -10.4887,2.45228 -13.45715,6.55011 -2.06532,2.85108 -3.23934,5.94189 -5.23265,13.77582 l -0.63932,2.5126 -3.06588,-1.06717 c -10.52,-3.66181 -15.3811,-15.04775 -10.62486,-24.88614 5.26061,-10.88174 18.48878,-17.81189 33.87918,-17.7491 22.80146,0.093 37.21006,11.99531 37.21006,30.73753 0,16.82581 -8.47631,28.44397 -32.52439,44.57994 -13.17424,8.83976 -17.35293,12.83451 -17.35293,16.58908 0,1.52918 0.23588,1.61307 2.57304,0.91503 1.41517,-0.42267 9.52023,-1.09272 18.01125,-1.48902 16.12163,-0.75243 21.81787,-1.82118 25.61163,-4.80535 l 2.07829,-1.63478 -0.34833,2.2269 c -0.19159,1.22479 -0.55663,4.36132 -0.81121,6.97007 -0.47023,4.81861 -3.33552,12.2054 -5.78515,14.91426 -4.23524,4.68343 -9.18865,5.20947 -30.64152,3.25405 z"
           id="path1450" />
        <path
           style="fill:#bf5617;fill-opacity:1;stroke-width:0.791703"
           d="m 840.49935,566.73739 c -4.73894,-0.90648 -12.5622,-4.45608 -16.52936,-7.49977 -7.22852,-5.54587 -13.52708,-17.10267 -16.12576,-29.58802 -2.17119,-10.43147 -2.00815,-27.83106 0.33712,-35.9777 5.29154,-18.38093 17.78426,-32.18926 33.79526,-37.35424 6.20223,-2.00078 6.60465,-2.02919 19.39674,-1.36976 15.53264,0.8007 24.37068,0.82212 29.49095,0.0715 3.75652,-0.55071 3.76059,-0.5488 3.76059,1.76968 0,6.77217 -2.97319,14.70407 -6.91449,18.44653 -4.28209,4.06604 -9.15818,4.24342 -25.12652,0.91405 -14.66986,-3.05865 -25.49238,1.68217 -31.66997,13.87307 -2.60465,5.14002 -4.37551,12.01577 -4.37551,16.98883 v 3.94718 l 2.37848,-3.75047 c 9.42479,-14.86136 30.12357,-21.95247 44.65698,-15.29885 11.51487,5.27168 17.25693,16.05922 17.32293,32.5444 0.0201,5.02469 -0.45931,9.83416 -1.29823,13.02346 -3.75205,14.26384 -13.95581,24.73566 -28.17098,28.91104 -4.70615,1.38232 -14.6587,1.54834 -20.92823,0.34909 z m 17.31133,-17.21821 c 6.39862,-2.97349 11.50424,-10.37943 12.67751,-18.38932 0.77863,-5.31567 -0.87551,-14.74663 -3.20654,-18.28188 -7.11353,-10.78841 -24.28168,-6.097 -31.26957,8.5448 -4.63747,9.71695 -3.91716,18.60524 1.98618,24.50858 5.00792,5.00792 13.48864,6.55653 19.81242,3.61782 z"
           id="path1451" />
      </g>
      <g
         id="g1447"
         transform="translate(-22.167696,-786.45133)">
        <path
           style="fill:#f26d1d;fill-opacity:1;stroke-width:0.791703"
           d="m 541.88545,561.60597 c -0.88996,-9.49726 -0.0272,-14.83242 3.58593,-22.17462 4.48937,-9.12282 11.75038,-16.55455 28.08425,-28.7446 14.00349,-10.45087 18.8053,-14.97472 20.69473,-19.49677 2.41408,-5.7777 0.44522,-12.34511 -4.43129,-14.7812 -3.32555,-1.6613 -10.10774,-1.81581 -13.70624,-0.31226 -5.78626,2.41765 -10.47971,9.58099 -11.41154,17.41673 l -0.4572,3.84467 -2.76171,-0.44817 c -3.82093,-0.62005 -8.45362,-3.86986 -10.99846,-7.71538 -5.80779,-8.77616 -1.77709,-20.93333 9.41932,-28.41 6.9174,-4.61927 13.58424,-6.50668 23.18635,-6.56416 16.62731,-0.0995 29.53612,6.33789 34.96656,17.43732 2.54942,5.21082 3.36726,14.64965 1.88711,21.77949 -2.56362,12.34889 -11.78874,22.95722 -30.97487,35.61923 -11.75101,7.75516 -16.91432,12.40273 -17.82934,16.04848 -0.66968,2.66819 -0.34086,2.88435 2.89838,1.90535 1.49519,-0.4519 9.48759,-1.14018 17.76089,-1.52953 15.83892,-0.74539 21.44146,-1.82627 25.33307,-4.8874 l 2.19557,-1.72704 -0.54751,5.48597 c -1.12746,11.29684 -4.68852,18.54953 -10.75121,21.89663 -3.0635,1.69131 -8.45092,1.65174 -31.27228,-0.22968 -12.80936,-1.05602 -30.08766,-0.69774 -32.59096,0.6758 -1.67258,0.91772 -1.72835,0.79323 -2.27955,-5.08886 z"
           id="path1444" />
        <path
           style="fill:#f26d1d;fill-opacity:1;stroke-width:0.791703"
           d="m 657.11386,566.39138 c -14.88052,-3.94974 -25.4205,-15.2641 -29.66653,-31.84617 -2.02527,-7.90928 -2.86503,-20.78375 -1.99733,-30.62117 1.35775,-15.39331 5.25155,-25.78804 12.72188,-33.96177 6.89121,-7.54008 15.29987,-11.33169 26.86137,-12.11223 23.54644,-1.58968 40.91451,11.55482 46.44973,35.15408 2.02939,8.65231 2.04326,30.53873 0.0248,39.13633 -5.34772,22.7783 -20.99047,35.58111 -43.31005,35.44712 -3.70122,-0.0222 -8.68895,-0.56051 -11.08385,-1.19619 z m 18.70059,-18.57886 c 9.59175,-4.64328 15.29786,-17.64095 15.32891,-34.91697 0.043,-23.95142 -9.48585,-37.82345 -24.74044,-36.01677 -12.36839,1.46485 -19.58502,14.94553 -19.56148,36.5409 0.0181,16.61073 5.96817,30.15536 15.25972,34.73701 3.58282,1.76667 9.66837,1.61395 13.71329,-0.34417 z"
           id="path1445" />
        <path
           style="fill:#f26d1d;fill-opacity:1;stroke-width:0.791703"
           d="m 762.80627,566.4159 c -13.55082,-1.23514 -30.45753,-1.38003 -35.13737,-0.30112 -1.90807,0.4399 -3.67752,0.59151 -3.93212,0.33691 -0.25459,-0.25458 -0.60449,-3.98816 -0.77755,-8.29682 -0.25366,-6.31535 0.005,-8.88465 1.33174,-13.25433 3.70725,-12.2053 11.64313,-20.5945 36.93189,-39.04155 10.95294,-7.9897 14.91779,-13.23804 14.92241,-19.75308 0.005,-7.22618 -4.24765,-11.08384 -12.21906,-11.08384 -5.45051,0 -10.4887,2.45228 -13.45715,6.55011 -2.06532,2.85108 -3.23934,5.94189 -5.23265,13.77582 l -0.63932,2.5126 -3.06588,-1.06717 c -10.52,-3.66181 -15.3811,-15.04775 -10.62486,-24.88614 5.26061,-10.88174 18.48878,-17.81189 33.87918,-17.7491 22.80146,0.093 37.21006,11.99531 37.21006,30.73753 0,16.82581 -8.47631,28.44397 -32.52439,44.57994 -13.17424,8.83976 -17.35293,12.83451 -17.35293,16.58908 0,1.52918 0.23588,1.61307 2.57304,0.91503 1.41517,-0.42267 9.52023,-1.09272 18.01125,-1.48902 16.12163,-0.75243 21.81787,-1.82118 25.61163,-4.80535 l 2.07829,-1.63478 -0.34833,2.2269 c -0.19159,1.22479 -0.55663,4.36132 -0.81121,6.97007 -0.47023,4.81861 -3.33552,12.2054 -5.78515,14.91426 -4.23524,4.68343 -9.18865,5.20947 -30.64152,3.25405 z"
           id="path1446" />
        <path
           style="fill:#f26d1d;fill-opacity:1;stroke-width:0.791703"
           d="m 840.49935,566.73739 c -4.73894,-0.90648 -12.5622,-4.45608 -16.52936,-7.49977 -7.22852,-5.54587 -13.52708,-17.10267 -16.12576,-29.58802 -2.17119,-10.43147 -2.00815,-27.83106 0.33712,-35.9777 5.29154,-18.38093 17.78426,-32.18926 33.79526,-37.35424 6.20223,-2.00078 6.60465,-2.02919 19.39674,-1.36976 15.53264,0.8007 24.37068,0.82212 29.49095,0.0715 3.75652,-0.55071 3.76059,-0.5488 3.76059,1.76968 0,6.77217 -2.97319,14.70407 -6.91449,18.44653 -4.28209,4.06604 -9.15818,4.24342 -25.12652,0.91405 -14.66986,-3.05865 -25.49238,1.68217 -31.66997,13.87307 -2.60465,5.14002 -4.37551,12.01577 -4.37551,16.98883 v 3.94718 l 2.37848,-3.75047 c 9.42479,-14.86136 30.12357,-21.95247 44.65698,-15.29885 11.51487,5.27168 17.25693,16.05922 17.32293,32.5444 0.0201,5.02469 -0.45931,9.83416 -1.29823,13.02346 -3.75205,14.26384 -13.95581,24.73566 -28.17098,28.91104 -4.70615,1.38232 -14.6587,1.54834 -20.92823,0.34909 z m 17.31133,-17.21821 c 6.39862,-2.97349 11.50424,-10.37943 12.67751,-18.38932 0.77863,-5.31567 -0.87551,-14.74663 -3.20654,-18.28188 -7.11353,-10.78841 -24.28168,-6.097 -31.26957,8.5448 -4.63747,9.71695 -3.91716,18.60524 1.98618,24.50858 5.00792,5.00792 13.48864,6.55653 19.81242,3.61782 z"
           id="path1447" />
      </g>
    </g>
  </g>
  <defs
     id="defs1361" />
  <g
     id="g1454"
     transform="translate(-414.40269,745.67064)">
    <g
       id="g1444"
       transform="translate(28.501324,-350.9843)">
      <path
         style="fill:#84400f;fill-opacity:1;stroke-width:0.279909"
         d="m 601.71478,-350.74963 c -1.25057,-0.3018 -1.92733,-0.72984 -2.89321,-1.82992 -1.086,-1.23689 -1.85054,-3.73237 -1.60806,-5.24877 0.39571,-2.47461 2.26943,-4.70314 4.51401,-5.36878 0.55953,-0.16594 0.5699,-0.0902 0.45603,3.33032 -0.14566,4.37518 -0.0903,4.47088 2.46384,4.25482 2.07172,-0.17525 4.70019,-1.06141 8.96354,-3.02196 l 2.93905,-1.35156 0.0741,-8.26789 c 0.0408,-4.54733 0.006,-8.26788 -0.0762,-8.26788 -0.0827,0 -1.15423,0.50475 -2.38122,1.12167 -3.10861,1.56297 -6.2772,2.79309 -8.23135,3.19558 -4.2701,0.8795 -8.27927,-1.39239 -8.27927,-4.69165 0,-1.49606 1.26961,-3.68542 2.67823,-4.61845 1.09559,-0.72569 3.08064,-1.37769 3.35603,-1.1023 0.0544,0.0544 -0.0721,0.59787 -0.28124,1.20766 -0.20911,0.60979 -0.46997,1.83298 -0.57968,2.71819 l -0.19947,1.60948 h 1.44083 c 1.78832,0 4.39904,-0.98643 9.68009,-3.65751 11.452,-5.79225 16.82406,-6.64315 22.82284,-3.61498 3.48461,1.75903 5.32078,4.25861 5.36393,7.30195 0.013,0.91511 -0.0264,1.71382 -0.0875,1.77491 -0.0611,0.0611 -1.62197,-0.89931 -3.46862,-2.13422 -5.26903,-3.52356 -5.08279,-3.45096 -8.81578,-3.43618 -2.83306,0.0112 -3.49882,0.11188 -5.55336,0.83972 l -2.33439,0.82699 0.033,8.38178 c 0.0181,4.60998 0.0745,8.42333 0.12529,8.47411 0.0508,0.0508 1.27536,-0.11212 2.72129,-0.362 5.00575,-0.86506 8.85856,0.22546 12.38375,3.50517 2.0317,1.89021 2.70119,3.41774 2.70119,6.16317 0,1.23671 -0.083,2.24858 -0.1845,2.24858 -0.32554,0 -2.97043,-2.11211 -5.16951,-4.12818 -2.67442,-2.45186 -4.04048,-3.02344 -7.10196,-2.97159 -2.87898,0.0488 -5.5881,0.91196 -11.3217,3.60742 -4.92299,2.31437 -6.95912,3.05545 -9.54985,3.47579 -2.01334,0.32667 -3.3538,0.33731 -4.60021,0.0365 z"
         id="path1389" />
      <path
         style="fill:#84400f;fill-opacity:1;stroke-width:0.279909"
         d="m 688.43318,-351.79168 c -0.92184,-1.40689 -0.65439,-3.24487 0.97323,-6.68847 2.14297,-4.53394 2.00691,-6.22066 -0.53854,-6.67613 -1.50139,-0.26865 -2.82011,-1.2785 -3.2934,-2.52202 -0.40337,-1.05983 -0.38937,-1.13095 0.60546,-3.07455 1.43684,-2.80718 1.6854,-3.52913 1.21504,-3.52913 -0.20796,0 -1.10304,0.3206 -1.98907,0.71245 -0.88603,0.39184 -2.98581,1.09624 -4.66616,1.56533 -2.65287,0.74057 -3.41594,0.84027 -5.7946,0.75708 -2.47314,-0.0865 -2.87245,-0.17814 -4.10844,-0.94294 -0.84867,-0.52514 -1.69103,-1.36841 -2.21617,-2.21859 -0.72084,-1.16702 -0.84702,-1.64898 -0.84639,-3.2331 6.1e-4,-1.56254 0.12466,-2.04893 0.77214,-3.02732 1.19667,-1.8083 2.64226,-2.61874 4.9679,-2.78514 l 1.96139,-0.14033 -0.97817,1.62441 c -0.98696,1.639 -1.40484,2.99982 -1.21341,3.9514 0.088,0.43761 0.36295,0.51422 1.77534,0.49474 2.12096,-0.0292 4.31268,-0.73459 10.76823,-3.4654 7.13009,-3.01616 8.44767,-3.39774 12.31602,-3.56679 3.85034,-0.16826 6.11192,0.27362 9.19866,1.79728 3.43537,1.69575 5.91645,4.71499 5.91645,7.19977 v 1.04076 l -0.91779,-1.20329 c -1.98097,-2.59724 -5.03366,-4.15851 -8.13096,-4.15851 -2.0355,0 -3.96942,0.45033 -7.96401,1.85447 -2.6327,0.92542 -2.86074,1.06212 -2.68211,1.60782 0.46278,1.41377 0.16971,3.29501 -0.82573,5.30043 l -0.9909,1.99625 1.10662,1.20054 c 1.35632,1.47143 1.65095,2.20656 1.65095,4.11933 0,1.83945 -0.49457,3.06338 -2.32511,5.7541 -1.64764,2.42186 -2.69708,4.78239 -2.70662,6.08803 -0.008,1.1029 -0.38697,1.16394 -1.03985,0.16752 z"
         id="path1390" />
      <path
         style="fill:#84400f;fill-opacity:1;stroke-width:0.279909"
         d="m 689.53395,-388.36848 c -1.51702,-0.84251 -1.9878,-2.84859 -1.08033,-4.60346 0.42957,-0.83069 1.64938,-1.48003 2.04225,-1.08715 0.09,0.09 0.42709,-0.0208 0.74902,-0.24629 0.91577,-0.64143 1.57772,-0.49114 2.59702,0.58963 0.78558,0.83296 0.94276,1.21177 0.94276,2.2722 0,1.10505 -0.14307,1.41566 -1.08671,2.3593 -0.93627,0.93627 -1.25596,1.08534 -2.30925,1.07679 -0.6724,-0.005 -1.50704,-0.16792 -1.85476,-0.36102 z m 2.39564,-2.48414 c 0.46267,-0.46266 0.40992,-0.81244 -0.24024,-1.59315 -0.66942,-0.80383 -0.70567,-0.77579 -0.956,0.73943 -0.17328,1.04886 -0.13401,1.18962 0.33191,1.18962 0.29064,0 0.67959,-0.15116 0.86433,-0.3359 z"
         id="path1391" />
      <path
         style="fill:#84400f;fill-opacity:1;stroke-width:0.279909"
         d="m 688.43318,-351.79168 c -0.9157,-1.39752 -0.64889,-3.23638 0.97576,-6.72512 2.15514,-4.62789 1.98983,-6.00891 -0.8049,-6.72413 -1.76777,-0.45241 -2.67249,-1.21143 -3.08497,-2.58816 -0.27441,-0.91591 -0.19227,-1.2174 0.99598,-3.65559 1.47838,-3.0335 1.3965,-3.19297 -1.07774,-2.09874 -3.18403,1.40812 -7.31886,2.38045 -10.12293,2.38045 -2.27522,0 -2.75368,-0.0915 -4.06633,-0.77719 -0.98115,-0.51255 -1.82598,-1.24808 -2.48118,-2.16016 -0.91492,-1.27363 -0.99347,-1.54012 -0.99347,-3.37075 0,-1.70111 0.11136,-2.15622 0.77215,-3.15573 1.19833,-1.81262 2.64126,-2.62088 4.97722,-2.78802 l 1.96998,-0.14095 -0.98778,1.65819 c -0.54414,0.91346 -1.06716,2.23738 -1.16454,2.94779 -0.15868,1.15769 -0.11435,1.30941 0.43332,1.48323 1.56064,0.49533 5.93104,-0.81061 12.96733,-3.87482 5.61138,-2.44368 7.66844,-3.01687 11.4025,-3.17723 3.8505,-0.16536 6.1154,0.27777 9.19866,1.79971 3.4471,1.70154 5.91645,4.71495 5.91645,7.22001 v 1.061 l -0.79807,-1.1017 c -1.75641,-2.42466 -4.52508,-3.99565 -7.45651,-4.23096 -2.02038,-0.16217 -4.53535,0.341 -8.53999,1.70861 l -2.65914,0.90811 -0.0243,2.01254 c -0.0208,1.71898 -0.17087,2.30775 -1.02889,4.03632 l -1.00456,2.02377 1.10662,1.20054 c 1.37324,1.48979 1.65259,2.20709 1.6448,4.22349 -0.007,1.88773 -0.59723,3.31587 -2.43161,5.88652 -1.50914,2.11487 -2.5844,4.54042 -2.59397,5.85145 -0.008,1.1029 -0.38697,1.16394 -1.03985,0.16752 z"
         id="path1392" />
      <path
         style="fill:#84400f;fill-opacity:1;stroke-width:0.279909"
         d="m 741.77323,-353.18803 c -0.63095,-0.7202 -1.25887,-2.02806 -1.49079,-3.10511 -0.29077,-1.35036 0.50916,-3.79372 1.52068,-4.64485 1.90961,-1.60684 3.95685,-1.57399 9.24334,0.14829 5.44198,1.77293 8.28131,0.70846 8.22977,-3.08536 -0.0244,-1.79712 -1.34837,-6.07489 -2.56841,-8.2987 -1.5524,-2.82962 -4.08627,-3.43138 -7.80135,-1.85271 -1.05528,0.44842 -2.69219,0.97462 -3.63758,1.16933 -1.51528,0.31207 -1.87077,0.296 -3.00107,-0.13566 -1.94642,-0.74335 -3.25026,-2.67467 -3.2559,-4.82283 -0.004,-1.38105 1.31073,-4.0239 2.00119,-4.0239 0.13009,0 0.23775,0.47235 0.23926,1.04966 10e-4,0.57731 0.31818,1.72729 0.70372,2.55551 0.69244,1.48748 0.71375,1.50406 1.7467,1.35929 0.57514,-0.0806 2.05338,-0.72887 3.28499,-1.44058 4.62505,-2.67271 8.38239,-2.90134 11.68883,-0.71124 1.76903,1.17175 2.82787,2.44282 4.02216,4.82833 0.55508,1.10875 1.04525,2.05618 1.08926,2.10541 0.044,0.0492 0.59104,-0.1712 1.21563,-0.48984 0.62458,-0.31864 1.405,-0.57935 1.73425,-0.57935 1.04015,0 2.47186,0.8637 3.30128,1.99153 l 0.80095,1.08912 1.08961,-1.44627 c 2.93918,-3.90128 8.31164,-4.22744 11.50012,-0.69817 1.44081,1.59481 2.11998,3.33766 2.26684,5.81706 0.0911,1.53736 -0.006,2.53244 -0.34554,3.5558 -0.85164,2.56406 -3.44163,4.06895 -5.1154,2.97225 -0.72575,-0.47553 -0.73492,-0.51017 -0.21228,-0.80114 0.30044,-0.16726 1.02022,-0.76165 1.5995,-1.32085 0.96169,-0.92836 1.05301,-1.14732 1.05061,-2.51918 -0.008,-4.78932 -5.3253,-7.22381 -7.46771,-3.41929 -0.78658,1.39682 -1.94094,2.48629 -3.16622,2.98825 -1.49973,0.6144 -3.3858,-0.0272 -4.46683,-1.51952 -0.44929,-0.62023 -0.86704,-1.27698 -0.92832,-1.45944 -0.0843,-0.2511 -0.27646,-0.24386 -0.79036,0.0298 -0.65079,0.34653 -0.67889,0.47997 -0.67805,3.21896 7.9e-4,2.55688 -0.0838,3.04138 -0.80433,4.60617 -1.78855,3.88431 -5.77639,5.93801 -9.90396,5.10047 -0.88107,-0.17879 -2.99349,-0.9372 -4.69427,-1.68537 -3.73037,-1.64099 -5.22401,-1.95164 -6.00134,-1.24817 -0.64444,0.58321 -1.12955,1.9496 -1.36872,3.85519 -0.16497,1.31443 -0.19827,1.36024 -0.63026,0.86713 z"
         id="path1393" />
    </g>
    <path
       style="fill:#c9ac8a;fill-opacity:1;stroke-width:0.197926"
       d="m 747.86944,-635.27552 c -0.31409,-0.22967 -0.34802,-0.43936 -0.23934,-1.4792 0.0697,-0.66637 0.31634,-1.72608 0.54821,-2.35491 0.47847,-1.29765 2.44034,-6.77398 4.52213,-12.62302 0.77491,-2.17718 1.68545,-4.62652 2.02344,-5.44296 0.33798,-0.81645 0.99398,-2.59778 1.45776,-3.95852 0.85124,-2.49752 2.50246,-6.44707 2.83398,-6.77859 0.49512,-0.49512 2.68865,-0.52921 2.87458,-0.0447 0.11501,0.29972 -0.42214,1.99013 -0.94176,2.96372 -0.17431,0.32658 -0.31747,0.69941 -0.31814,0.82853 -6.7e-4,0.12911 -0.26672,0.93071 -0.59123,1.78133 -0.3245,0.85062 -1.13608,3.06071 -1.80351,4.91132 -0.66742,1.85061 -1.47458,4.07727 -1.79368,4.94815 -0.3191,0.87087 -1.01369,2.7858 -1.54355,4.2554 -0.52985,1.4696 -1.41202,3.8744 -1.96038,5.344 -0.54836,1.4696 -1.35636,3.64272 -1.79555,4.82915 -1.05611,2.853 -1.22024,3.08789 -2.15767,3.08789 -0.41213,0 -0.914,-0.12043 -1.11529,-0.26761 z"
       id="path1401" />
    <g
       id="g1443"
       transform="translate(28.501324,-350.9843)">
      <path
         style="fill:#c9ac8a;fill-opacity:1;stroke-width:0.197926"
         d="m 541.5862,-284.83451 c -0.66963,-0.25339 -1.21082,-1.06611 -3.28222,-4.92895 -1.1383,-2.12276 -2.50943,-4.61663 -3.04694,-5.54193 -0.53752,-0.9253 -1.37335,-2.41708 -1.85741,-3.31506 -0.48405,-0.89798 -0.97563,-1.63278 -1.0924,-1.63289 -0.3744,-3.4e-4 -3.37784,3.23392 -3.85961,4.15625 -0.43641,0.83548 -0.47261,1.17273 -0.58424,5.44296 -0.1489,5.69633 -0.19931,5.83034 -2.19508,5.83578 -0.81932,0.002 -1.2452,-0.10223 -1.6206,-0.39752 l -0.50922,-0.40055 -0.0133,-14.93769 c -0.0131,-14.69557 -0.007,-14.94412 0.38357,-15.33456 0.49181,-0.49181 2.26237,-0.55347 2.90798,-0.10127 0.51973,0.36404 0.631,1.4914 0.82059,8.31419 0.12976,4.66986 0.13911,4.75022 0.55255,4.75022 0.26212,0 0.74679,-0.38371 1.28651,-1.01852 1.74484,-2.05222 5.64845,-6.55516 7.35301,-8.48193 3.58186,-4.04878 3.30755,-3.85955 5.59476,-3.85955 1.33561,0 1.49525,0.0431 1.78251,0.48154 0.2602,0.39712 0.27269,0.56195 0.0712,0.94015 -0.13438,0.25223 -0.35143,0.54767 -0.48234,0.65653 -0.1309,0.10886 -0.60472,0.68779 -1.05292,1.28652 -1.56757,2.09401 -2.80856,3.65383 -4.23396,5.32174 -2.03939,2.38634 -2.92126,3.60055 -2.92126,4.02217 0,0.53795 0.85003,2.1039 4.93988,9.10037 4.17462,7.14148 5.14338,9.28771 4.31316,9.55549 -0.48241,0.15559 -2.90171,0.2199 -3.25422,0.0865 z"
         id="path1394" />
      <path
         style="fill:#c9ac8a;fill-opacity:1;stroke-width:0.197926"
         d="m 548.33382,-285.09239 c -0.11192,-0.29166 0.41855,-2.06768 1.60208,-5.36381 0.39087,-1.0886 0.84851,-2.4246 1.01697,-2.96889 0.16846,-0.5443 0.46584,-1.30137 0.66084,-1.68237 0.195,-0.38101 0.55219,-1.40528 0.79376,-2.27615 0.24156,-0.87087 0.77442,-2.42954 1.18413,-3.4637 0.40972,-1.03417 0.98824,-2.59283 1.28561,-3.46371 1.59568,-4.67304 2.16212,-6.18403 3.26473,-8.70873 0.66558,-1.52403 1.35772,-2.8823 1.53807,-3.01837 0.18035,-0.13608 0.76502,-0.24741 1.29927,-0.24741 0.82384,0 1.05549,0.0901 1.52544,0.59315 0.30474,0.32623 0.73252,1.1501 0.95062,1.83081 0.2181,0.68072 0.86074,2.351 1.42809,3.71174 0.56736,1.36074 1.2787,3.18661 1.58076,4.05748 0.30206,0.87088 0.6922,1.85061 0.86697,2.17719 0.17478,0.32657 0.31832,0.70052 0.31899,0.83099 0.002,0.29291 1.06076,3.03876 3.26802,8.47152 0.39805,0.97974 0.92809,2.36548 1.17786,3.07943 0.24977,0.71396 0.58937,1.56009 0.75466,1.8803 0.50225,0.97296 1.35504,3.6893 1.29226,4.11617 -0.0735,0.49996 -0.99429,0.76365 -2.38052,0.68174 -1.24734,-0.0737 -1.41978,-0.28499 -2.63259,-3.22554 -0.49375,-1.19715 -1.01587,-2.29477 -1.16025,-2.43915 -0.50851,-0.50851 -1.8582,-0.61985 -7.57082,-0.62452 -5.31042,-0.004 -5.77934,0.0228 -5.9091,0.34164 -0.0775,0.19051 -0.3452,0.92531 -0.59484,1.63289 -1.35657,3.84506 -1.82335,4.35437 -3.99072,4.35437 -1.07219,0 -1.49242,-0.0742 -1.57029,-0.27707 z m 17.99874,-9.94979 c 0.073,-0.073 0.008,-0.32297 -0.14447,-0.55558 -0.15242,-0.23262 -0.81628,-1.97653 -1.47526,-3.87536 -1.69908,-4.89588 -2.09009,-5.89962 -3.01407,-7.73733 -0.917,-1.82383 -0.93809,-1.82101 -1.57564,0.21031 -0.19088,0.60814 -0.94652,2.66438 -1.67921,4.56942 -1.19658,3.11118 -2.46212,6.78862 -2.46795,7.17141 -10e-4,0.0798 2.24672,0.17045 4.99542,0.20149 2.74869,0.031 5.04958,0.0771 5.11308,0.10236 0.0635,0.0253 0.17515,-0.0138 0.2481,-0.0867 z"
         id="path1395" />
      <path
         style="fill:#c9ac8a;fill-opacity:1;stroke-width:0.197926"
         d="m 579.83068,-285.00213 c -0.0612,-0.099 -0.10258,-6.97786 -0.092,-15.28636 0.0163,-12.78432 0.063,-15.17483 0.30416,-15.55171 0.25382,-0.39671 0.44649,-0.44533 1.76481,-0.44533 2.48821,0 2.29327,-0.99433 2.16353,11.03557 -0.12354,11.45393 -0.20527,14.8075 -0.37502,15.38753 -0.26441,0.90346 -0.21458,0.90935 7.6257,0.90036 4.41063,-0.005 7.52497,0.0684 7.70181,0.18159 0.377,0.24137 0.42373,3.02553 0.057,3.39309 -0.13196,0.13225 -0.75543,0.31151 -1.38548,0.39837 -1.60482,0.22124 -17.62692,0.20941 -17.76445,-0.0131 z"
         id="path1396" />
      <path
         style="fill:#c9ac8a;fill-opacity:1;stroke-width:0.197926"
         d="m 604.08543,-285.09329 c -0.15673,-0.18885 -0.19596,-0.83933 -0.12234,-2.02874 0.0596,-0.96292 0.14986,-7.49557 0.20058,-14.51699 0.0507,-7.02142 0.15041,-13.07795 0.22153,-13.45895 0.1775,-0.95098 0.55772,-1.18756 1.90854,-1.18756 0.96109,0 1.24023,0.0815 1.63656,0.47784 l 0.47784,0.47783 -0.0376,15.10883 c -0.0249,9.99866 -0.10584,15.15801 -0.23942,15.25424 -0.11102,0.08 -1.01481,0.14678 -2.00843,0.14844 -1.31273,0.002 -1.86965,-0.073 -2.03728,-0.27494 z"
         id="path1397" />
      <path
         style="fill:#c9ac8a;fill-opacity:1;stroke-width:0.197926"
         d="m 617.80948,-284.83018 c -1.32849,-0.38574 -1.25459,0.36211 -1.27058,-12.85799 -0.008,-6.58177 -0.0112,-13.45871 -0.007,-15.2821 l 0.007,-3.31526 h 1.39531 c 0.84863,0 1.61862,0.11548 1.96527,0.29474 0.39201,0.20271 1.10481,1.17599 2.28306,3.11733 2.69962,4.44803 3.67198,5.96412 4.9454,7.71076 0.65315,0.89589 1.40044,1.98841 1.66065,2.42784 0.2602,0.43943 1.11298,1.77869 1.89507,2.97614 0.78208,1.19745 1.61917,2.59097 1.8602,3.09671 0.45452,0.9537 1.25943,1.9504 1.5751,1.9504 0.3608,0 0.44656,-1.63118 0.54111,-10.29215 0.0529,-4.84423 0.14414,-9.26629 0.20279,-9.82679 0.12231,-1.16892 0.25779,-1.24993 2.09775,-1.25435 1.93771,-0.005 1.81483,-0.74668 1.66945,10.08109 -0.16987,12.65108 -0.30696,18.93883 -0.43499,19.95094 -0.0732,0.57881 -0.23489,0.90946 -0.51901,1.06152 -0.54494,0.29164 -2.1825,0.12303 -2.8122,-0.28956 -0.60222,-0.39459 -1.89678,-2.11451 -2.81712,-3.74275 -0.36918,-0.65315 -0.95894,-1.54992 -1.31058,-1.99281 -0.35163,-0.4429 -0.95107,-1.31982 -1.33208,-1.94873 -0.92395,-1.5251 -3.24376,-5.15085 -4.13384,-6.46098 -0.65904,-0.97008 -1.46796,-2.26328 -3.27217,-5.23121 -1.09374,-1.79919 -1.22542,-1.61474 -1.34234,1.8803 -0.0555,1.6601 -0.0716,6.24924 -0.0356,10.19807 0.0632,6.93201 0.0519,7.19319 -0.32556,7.57067 -0.42201,0.42201 -1.40323,0.49236 -2.48528,0.17817 z"
         id="path1398" />
      <path
         style="fill:#c9ac8a;fill-opacity:1;stroke-width:0.197926"
         d="m 655.23357,-284.49871 c -1.26627,-0.40095 -3.72381,-1.66454 -4.53033,-2.32934 -0.40819,-0.33647 -1.31385,-1.376 -2.01258,-2.31007 -1.27749,-1.70778 -1.49173,-2.19961 -2.65165,-6.08755 -0.96734,-3.24245 -0.62706,-9.7184 0.68587,-13.05256 1.49482,-3.79611 3.06417,-5.68704 5.84639,-7.04443 2.26542,-1.10525 3.92247,-1.43441 6.57428,-1.30595 3.6099,0.17487 6.09443,0.99355 8.07636,2.66123 1.08505,0.91301 2.55921,2.82233 2.55921,3.31467 0,0.61346 -1.83153,2.28421 -2.50403,2.28421 -0.32214,0 -0.77203,-0.31491 -1.35678,-0.94971 -2.25411,-2.44704 -4.86959,-3.53699 -7.91578,-3.29874 -2.39138,0.18703 -3.30593,0.55175 -4.73448,1.88809 -1.4097,1.3187 -2.20069,2.67514 -2.99227,5.13133 -0.96203,2.98509 -0.72895,7.60919 0.5537,10.98488 1.06281,2.79711 2.68081,4.75387 4.68968,5.67157 1.09737,0.5013 1.53076,0.59 2.82996,0.57919 1.70781,-0.0142 3.36058,-0.49321 4.37484,-1.26789 1.04005,-0.79437 2.23958,-2.07541 2.88465,-3.08066 0.62414,-0.97263 1.514,-3.32186 1.6313,-4.30661 l 0.0651,-0.54681 -4.35436,0.0562 c -4.31197,0.0557 -5.31062,-0.055 -5.68793,-0.6306 -0.19021,-0.29017 -0.002,-2.21126 0.2913,-2.97687 l 0.21648,-0.56465 6.15274,0.0951 c 3.38401,0.0523 6.3567,0.16184 6.606,0.24344 0.75708,0.24781 1.0315,1.07701 1.02809,3.10659 -0.003,2.07325 -0.27783,3.36516 -1.15881,5.45692 -0.88066,2.09099 -2.67252,4.63866 -4.05246,5.7618 -1.17079,0.95291 -3.75346,2.15156 -5.37467,2.49445 -1.67656,0.3546 -4.65455,0.3664 -5.73985,0.0227 z"
         id="path1399" />
      <path
         style="fill:#c9ac8a;fill-opacity:1;stroke-width:0.197926"
         d="m 675.05914,-284.94727 c -0.29898,-0.29898 0.0316,-1.78714 0.84994,-3.82657 0.19657,-0.48986 0.49889,-1.33599 0.67182,-1.88029 0.64452,-2.02863 1.49006,-4.37337 1.78674,-4.95477 0.1685,-0.33022 0.45246,-1.17635 0.63102,-1.88029 0.17855,-0.70395 0.70345,-2.25963 1.16644,-3.45709 0.84544,-2.18659 1.10464,-2.90883 2.48617,-6.9274 0.66205,-1.92577 1.31352,-3.51933 2.81941,-6.89649 0.5307,-1.19017 0.98026,-1.51536 2.09495,-1.51536 0.73376,0 0.97243,0.1057 1.49873,0.66374 0.35257,0.37384 0.76439,1.13026 0.94287,1.73185 0.17429,0.58746 0.78034,2.18145 1.34677,3.54219 0.56643,1.36074 1.32389,3.27567 1.68323,4.2554 0.35934,0.97974 0.87753,2.36027 1.15153,3.06785 0.274,0.70759 0.85892,2.28506 1.29982,3.5055 0.44091,1.22043 0.89137,2.3783 1.00102,2.57303 0.22403,0.39784 1.06104,2.51541 2.20213,5.5712 0.42109,1.12768 0.84247,2.15194 0.93639,2.27615 0.0939,0.1242 0.41859,0.96963 0.72147,1.87872 0.65852,1.97654 0.5665,2.16772 -1.12753,2.34256 -2.07686,0.21435 -2.26332,0.0317 -3.71072,-3.63601 -1.06541,-2.69971 -0.53754,-2.52603 -7.89805,-2.59847 -5.00726,-0.0493 -6.32535,-0.009 -6.48957,0.19793 -0.11333,0.14287 -0.40851,0.88323 -0.65595,1.64524 -0.56855,1.75095 -1.44996,3.52313 -2.01327,4.04794 -0.35437,0.33014 -0.69762,0.40539 -1.84927,0.40539 -0.77778,0 -1.47352,-0.0594 -1.54609,-0.13195 z m 17.77226,-10.30864 c -0.0822,-0.1905 -0.58883,-1.5933 -1.12592,-3.11733 -2.02856,-5.75621 -3.95023,-10.36088 -4.33346,-10.38374 -0.0679,-0.004 -0.34899,0.6829 -0.62464,1.52656 -0.27565,0.84366 -1.16665,3.2772 -1.98,5.40786 -0.81334,2.13067 -1.62485,4.3763 -1.80334,4.99029 -0.17849,0.61399 -0.37648,1.25173 -0.43998,1.4172 -0.10112,0.26352 0.51928,0.30784 5.00103,0.3572 2.81405,0.031 5.19279,0.077 5.28609,0.10234 0.0933,0.0253 0.10239,-0.10987 0.0202,-0.30038 z"
         id="path1400" />
      <path
         style="fill:#c9ac8a;fill-opacity:1;stroke-width:0.197926"
         d="m 765.08242,-284.55184 c -1.63775,-0.1874 -3.11064,-0.55501 -4.45333,-1.11149 -1.24267,-0.51502 -1.76256,-0.89097 -3.19199,-2.3082 -1.45337,-1.44098 -1.84117,-1.97285 -2.6053,-3.57327 -1.23247,-2.58129 -1.7577,-4.95196 -1.87659,-8.47006 -0.0938,-2.77501 -0.0521,-3.19164 0.67083,-6.7002 0.86625,-4.20426 3.86632,-7.77022 7.59683,-9.02979 3.27401,-1.10543 7.27658,-0.87989 10.14059,0.57141 2.21608,1.12297 4.9429,4.47476 4.37954,5.3833 -0.32151,0.51849 -2.10922,1.81539 -2.50397,1.8165 -0.19481,5.5e-4 -0.9583,-0.56636 -1.69663,-1.25979 -0.7514,-0.70571 -1.98969,-1.598 -2.81261,-2.02671 -1.42465,-0.74219 -1.52896,-0.76517 -3.36774,-0.74198 -2.21503,0.0279 -3.3828,0.43786 -4.59972,1.61465 -2.29004,2.21453 -3.08527,4.24916 -3.41929,8.74845 -0.12794,1.72342 0.308,5.37894 0.73709,6.1807 0.11243,0.21008 0.32854,0.79803 0.48024,1.30656 0.40791,1.3674 1.71468,2.97249 3.19572,3.92526 1.63876,1.05424 3.14674,1.35164 5.41274,1.06751 1.72631,-0.21646 3.26052,-0.96196 5.30422,-2.57742 0.55527,-0.43891 1.13445,-0.79802 1.28708,-0.79802 0.38666,0 1.87154,1.65289 2.02145,2.25017 0.18953,0.75514 -0.0217,1.15628 -1.2518,2.37688 -1.59299,1.58074 -4.06192,2.75484 -6.47847,3.08085 -0.97973,0.13217 -1.91493,0.26333 -2.07822,0.29147 -0.16329,0.0281 -0.56409,0.0206 -0.89067,-0.0168 z"
         id="path1402" />
      <path
         style="fill:#c9ac8a;fill-opacity:1;stroke-width:0.197926"
         d="m 779.70028,-285.11551 c -0.0634,-0.1651 -0.0667,-0.4991 -0.007,-0.74222 0.40293,-1.65287 0.57319,-2.20943 0.90533,-2.95955 0.20632,-0.46597 0.51571,-1.29255 0.68753,-1.83685 0.62423,-1.97745 1.48533,-4.36807 1.78472,-4.95477 0.1685,-0.33022 0.45246,-1.17635 0.63102,-1.88029 0.17855,-0.70395 0.70345,-2.25963 1.16644,-3.45709 0.84544,-2.18659 1.10464,-2.90883 2.48617,-6.9274 0.66205,-1.92577 1.31352,-3.51933 2.81941,-6.89649 0.5307,-1.19017 0.98026,-1.51536 2.09495,-1.51536 0.73376,0 0.97243,0.1057 1.49873,0.66374 0.35257,0.37384 0.76439,1.13026 0.94287,1.73185 0.17429,0.58746 0.78335,2.18145 1.35346,3.54219 0.57012,1.36074 1.32684,3.27567 1.6816,4.2554 0.35477,0.97974 0.86915,2.36027 1.14307,3.06785 0.27392,0.70759 0.81027,2.13265 1.19187,3.16682 0.38161,1.03416 1.11277,2.90456 1.62481,4.15644 0.51203,1.25188 1.27394,3.19879 1.69314,4.32647 0.41919,1.12768 0.83902,2.15194 0.93294,2.27615 0.0939,0.1242 0.41859,0.96963 0.72147,1.87872 0.65852,1.97654 0.5665,2.16772 -1.12753,2.34256 -2.07686,0.21435 -2.26332,0.0317 -3.71072,-3.63601 -1.06555,-2.70006 -0.53443,-2.52565 -7.91991,-2.60075 l -6.30531,-0.0641 -0.28272,0.55893 c -0.1555,0.30742 -0.44079,1.0488 -0.63398,1.64753 -0.45201,1.40085 -1.38631,3.26734 -1.88532,3.76634 -0.31912,0.31912 -0.66132,0.3901 -1.88075,0.3901 -1.14973,0 -1.517,-0.0686 -1.60585,-0.30019 z m 17.8339,-10.1404 c -0.0822,-0.1905 -0.58883,-1.5933 -1.12592,-3.11733 -2.02856,-5.75621 -3.95023,-10.36088 -4.33346,-10.38374 -0.0679,-0.004 -0.34899,0.6829 -0.62464,1.52656 -0.27565,0.84366 -1.16665,3.2772 -1.98,5.40786 -0.81334,2.13067 -1.62485,4.3763 -1.80334,4.99029 -0.17849,0.61399 -0.37648,1.25173 -0.43998,1.4172 -0.10112,0.26352 0.51928,0.30784 5.00103,0.3572 2.81405,0.031 5.19279,0.077 5.28609,0.10234 0.0933,0.0253 0.10239,-0.10987 0.0202,-0.30038 z"
         id="path1403" />
      <path
         style="fill:#c9ac8a;fill-opacity:1;stroke-width:0.197926"
         d="m 811.603,-284.98774 c -0.47198,-0.10118 -0.61309,-0.25911 -0.72635,-0.81287 -0.0773,-0.37802 -0.0959,-0.75952 -0.0414,-0.84779 0.0546,-0.0883 0.12857,-5.7462 0.16449,-12.57318 0.0359,-6.82698 0.0732,-13.33017 0.0829,-14.45153 l 0.0176,-2.03884 0.72934,-0.30474 c 0.61987,-0.259 1.69675,-0.29315 7.17481,-0.22754 6.09892,0.073 6.51425,0.10148 7.72444,0.52899 0.70343,0.24849 1.66144,0.67594 2.12891,0.9499 1.18684,0.69553 2.96694,2.8957 3.33396,4.1207 0.47806,1.59564 0.6768,3.432 0.47979,4.43344 -0.54059,2.74807 -1.69382,4.41341 -4.40788,6.3653 -0.8725,0.62748 -0.93913,0.73398 -0.84845,1.35612 0.0541,0.37135 1.25167,3.08788 2.66122,6.03674 1.40955,2.94887 2.69882,5.78444 2.86503,6.30127 0.28508,0.88649 0.28121,0.95093 -0.0685,1.13808 -0.20387,0.1091 -0.96914,0.19837 -1.7006,0.19837 -1.30624,0 -1.34347,-0.0147 -2.08968,-0.82294 -0.67011,-0.72587 -3.13915,-5.41432 -3.94437,-7.48994 -0.57186,-1.47413 -1.92776,-3.6683 -2.6061,-4.21733 -0.59359,-0.48043 -0.99603,-0.60831 -2.44644,-0.77737 -1.24525,-0.14514 -2.00958,-0.13919 -2.70384,0.0211 -0.53232,0.12287 -1.28061,0.22341 -1.66287,0.22341 H 815.024 l 0.0639,6.15556 0.0639,6.15557 -0.46432,0.37599 c -0.47759,0.38673 -1.8176,0.47516 -3.08446,0.20356 z m 13.37572,-17.61247 c 1.63097,-0.63557 3.20997,-2.34068 3.54216,-3.82506 0.21624,-0.9663 0.20192,-1.24573 -0.11565,-2.25535 -0.46903,-1.49116 -1.40523,-2.42988 -3.10001,-3.10834 -1.29106,-0.51685 -1.34384,-0.52113 -5.58807,-0.45289 -2.35658,0.0379 -4.33662,0.12081 -4.40008,0.18427 -0.0635,0.0635 -0.1273,2.3344 -0.14187,5.04653 l -0.0265,4.93114 4.35884,-0.0434 c 3.95364,-0.0394 4.46224,-0.0837 5.47116,-0.47688 z"
         id="path1404" />
      <path
         style="fill:#c9ac8a;fill-opacity:1;stroke-width:0.197926"
         d="m 842.15635,-284.96406 c -0.86646,-0.0525 -1.25324,-0.18935 -1.78133,-0.63025 l -0.67455,-0.56319 0.0608,-11.15498 c 0.0502,-9.20318 0.10513,-13.69714 0.22597,-18.48204 0.01,-0.39533 0.11125,-0.39952 9.33777,-0.38639 9.29046,0.0132 9.32904,0.015 9.67135,0.43771 0.18902,0.23343 0.4056,0.8912 0.48128,1.46169 0.11317,0.85315 0.0707,1.12745 -0.23947,1.54536 -0.7355,0.99109 -0.83055,1.00146 -8.19116,0.89371 -5.3128,-0.0778 -6.89665,-0.0454 -7.01334,0.14342 -0.0829,0.13414 -0.19041,2.18196 -0.23892,4.55071 l -0.0882,4.30682 0.47102,0.20232 c 0.25906,0.11128 2.94047,0.27578 5.9587,0.36556 3.01822,0.0898 5.54763,0.2232 5.62091,0.29647 0.22721,0.22721 0.30393,2.99329 0.0917,3.30701 -0.16939,0.25041 -1.14699,0.30767 -6.24487,0.36572 l -6.04404,0.0688 v 3.61466 c 0,4.50635 0.10636,5.39306 0.66948,5.58136 0.23051,0.0771 3.26925,0.11954 6.75274,0.0943 7.00959,-0.0507 6.55633,-0.13061 7.59719,1.33917 0.74243,1.04836 0.77786,1.65798 0.13382,2.30203 l -0.48293,0.48292 -7.48359,-0.0379 c -4.11598,-0.0209 -7.98165,-0.0681 -8.59038,-0.10501 z"
         id="path1405" />
    </g>
  </g>
</svg>
