<?xml version="1.0" encoding="UTF-8" standalone="no"?>
<svg
   width="233.19434"
   height="45.116829"
   viewBox="0 0 233.19434 45.116829"
   fill="none"
   version="1.1"
   id="svg1361"
   xmlns="http://www.w3.org/2000/svg"
   xmlns:svg="http://www.w3.org/2000/svg">
  <defs
     id="defs1361" />
  <g
     id="g1385"
     transform="translate(-88.485757,-65.386948)"
     style="fill:#cc8213;fill-opacity:1">
    <path
       style="fill:#cc8213;fill-opacity:1;stroke-width:0.0989629"
       d="M 94.531123,101.92959 C 93.05628,101.55538 92.134101,100.39199 91.630326,98.270037 91.46765,97.584832 91.44947,96.507989 91.393071,84.217454 91.336298,71.845537 91.319565,70.865371 91.155772,70.317435 90.951874,69.635336 90.67716,69.060042 90.341457,68.612136 90.211382,68.438587 90.138536,68.276863 90.179575,68.25275 c 0.118676,-0.06973 1.744785,-0.455744 2.578741,-0.612157 2.316109,-0.434399 6.836004,-0.675449 9.895644,-0.527741 4.26843,0.206063 7.66668,1.658849 9.69107,4.143032 0.69131,0.848333 1.44914,2.386571 1.77829,3.609573 0.2499,0.928549 0.26669,1.124007 0.27199,3.166814 0.004,1.70965 -0.0319,2.361695 -0.16938,3.036402 -0.73368,3.601826 -2.57016,6.095456 -5.56463,7.555848 -2.15738,1.052143 -4.36636,1.550821 -7.50043,1.693229 l -1.455717,0.06614 7.47e-4,3.423592 c 4.15e-4,1.90006 0.04677,3.709849 0.104157,4.066851 0.116335,0.723663 0.441523,1.503747 0.850223,2.039578 l 0.27465,0.360089 -0.29326,0.23881 c -0.48345,0.39369 -1.824273,1.01082 -2.668369,1.22816 -0.898084,0.23124 -2.852199,0.33832 -3.442178,0.18862 z m 8.245757,-18.261865 c 1.44365,-0.324053 2.31595,-0.907237 2.84682,-1.903254 0.50067,-0.939354 0.65113,-1.671145 0.65544,-3.187904 0.005,-1.836783 -0.28969,-2.786904 -1.1571,-3.72794 -0.97761,-1.060571 -2.67237,-1.559465 -4.66369,-1.372863 l -0.753197,0.07058 v 5.20222 5.202218 l 1.166697,-0.05866 c 0.64168,-0.03226 1.49894,-0.133241 1.90503,-0.224397 z"
       id="path1377" />
    <path
       style="fill:#cc8213;fill-opacity:1;stroke-width:0.0989629"
       d="m 125.18811,110.48187 c -0.98332,-0.14077 -1.82931,-0.30152 -3.87015,-0.73542 -2.92321,-0.6215 -3.9359,-0.7448 -4.895,-0.59599 -0.7201,0.11173 -1.30913,0.33472 -1.76603,0.66857 l -0.23904,0.17466 0.0622,-1.13627 c 0.17676,-3.22962 1.43774,-5.07598 3.72458,-5.45364 0.97892,-0.16167 2.41965,0.0106 3.99774,0.47803 0.6624,0.1962 1.55278,0.46067 1.97861,0.58771 2.34194,0.69868 4.62494,0.43392 5.50989,-0.63896 0.56809,-0.68872 0.71797,-1.27792 0.76959,-3.02532 l 0.0464,-1.57191 -0.63068,0.640985 c -1.19111,1.210575 -2.4706,1.612125 -4.88609,1.533425 -2.43554,-0.0794 -3.85044,-0.60976 -5.20169,-1.949972 -0.89905,-0.891714 -1.46127,-1.906713 -1.85151,-3.342611 l -0.26153,-0.962299 -0.007,-6.135702 c -0.006,-5.423159 -0.0269,-6.244882 -0.18127,-7.075849 -0.23302,-1.254478 -0.50056,-2.113741 -0.86013,-2.762474 -0.16334,-0.294695 -0.28197,-0.550815 -0.26363,-0.569157 0.11307,-0.113068 2.39282,-0.355881 3.43084,-0.365413 2.25979,-0.02075 3.51638,0.539867 4.23069,1.887485 0.6777,1.278557 0.75997,2.253326 0.56838,6.733983 -0.26224,6.132632 -0.19497,7.664256 0.3871,8.812905 0.36366,0.717647 0.73873,0.949172 1.60884,0.993111 0.39031,0.01971 0.86572,-0.01567 1.05647,-0.07862 0.93602,-0.308915 1.58063,-1.186907 1.89298,-2.57834 0.35766,-1.593292 0.50785,-9.269554 0.217,-11.091144 -0.29257,-1.832415 -0.75259,-3.14046 -1.41448,-4.021982 l -0.23889,-0.318169 0.52195,-0.147171 c 1.54257,-0.434949 3.4969,-0.450716 4.63041,-0.03736 1.33917,0.488361 2.38767,1.431272 2.96614,2.667428 0.59327,1.267798 0.59158,1.239146 0.59175,10.028988 1.8e-4,9.595993 -0.0803,10.910023 -0.8089,13.211553 -0.79424,2.50877 -2.10369,4.19168 -4.03939,5.19143 -1.4361,0.74172 -2.45422,0.95982 -4.64887,0.99591 -1.00695,0.0165 -1.96441,0.011 -2.1277,-0.0124 z"
       id="path1378" />
    <path
       style="fill:#cc8213;fill-opacity:1;stroke-width:0.0989629"
       d="m 148.19,101.89546 c -1.60777,-0.4335 -2.54709,-1.7923 -2.91656,-4.219047 -0.11145,-0.732039 -0.14326,-2.124527 -0.14372,-6.290668 l -5.8e-4,-5.350521 -1.26178,-0.313074 c -1.49835,-0.371775 -2.46637,-0.729201 -3.14207,-1.160166 -0.67239,-0.428851 -0.80816,-0.603909 -0.97999,-1.263618 -0.1656,-0.635778 -0.41197,-3.740499 -0.31655,-3.989152 0.0478,-0.124662 0.13917,-0.14595 0.409,-0.09533 0.72538,0.136081 2.79879,0.349285 4.02779,0.414167 l 1.27856,0.0675 -0.0412,-4.295342 c -0.0344,-3.585824 -0.0683,-4.398025 -0.20498,-4.916975 -0.18314,-0.695134 -0.46176,-1.294823 -0.82918,-1.784717 -0.13535,-0.180471 -0.22969,-0.344541 -0.20963,-0.3646 0.13044,-0.130442 1.7998,-0.585749 2.73958,-0.747201 3.21022,-0.551513 5.07644,0.07721 6.13223,2.065918 0.61905,1.166044 0.64122,1.353536 0.68509,5.792053 l 0.04,4.042932 0.46311,-0.06863 c 1.55267,-0.230097 4.06641,-1.104037 4.81258,-1.673165 0.18593,-0.141816 0.37891,-0.257847 0.42885,-0.257847 0.0499,0 0.12076,0.812733 0.15737,1.806073 0.12294,3.335093 -0.19659,4.981381 -1.14153,5.881433 -0.64685,0.616127 -2.03484,1.105723 -3.59624,1.268537 -0.32658,0.03405 -0.71625,0.08495 -0.86593,0.113094 l -0.27215,0.05118 0.002,5.459839 c 0.002,5.823141 0.0334,6.281773 0.4964,7.205938 0.11878,0.237096 0.34543,0.567494 0.50367,0.734209 l 0.2877,0.30314 -0.71896,0.40405 c -1.9258,1.08227 -4.35737,1.57505 -5.82255,1.17999 z"
       id="path1379" />
    <path
       style="fill:#cc8213;fill-opacity:1;stroke-width:0.0989629"
       d="m 164.49959,101.92989 c -1.71801,-0.43606 -2.7089,-1.951599 -3.0381,-4.646733 -0.0655,-0.536472 -0.10243,-5.249032 -0.10243,-13.080687 0,-8.200376 -0.0352,-12.494952 -0.10653,-13.007977 -0.12785,-0.919265 -0.36761,-1.591665 -0.82694,-2.3192 l -0.34181,-0.541389 0.66238,-0.227855 c 1.14398,-0.393523 2.39795,-0.621953 3.74212,-0.681684 1.14523,-0.05089 1.38023,-0.03284 1.99205,0.152993 1.3715,0.41658 2.31484,1.385759 2.86597,2.944478 l 0.27614,0.780956 0.0306,5.031231 0.0306,5.03123 0.51375,-0.48436 c 2.67485,-2.521847 7.1719,-3.510896 9.94964,-2.188251 1.22678,0.584146 2.24166,1.93009 2.67679,3.550014 0.47981,1.786259 0.50761,2.588762 0.40613,11.722647 -0.0556,5.002917 -0.0384,5.16413 0.63655,5.952598 0.3262,0.381089 0.33669,0.414659 0.1753,0.560719 -0.29867,0.27029 -1.4244,0.74744 -2.2963,0.97331 -1.19975,0.31079 -2.69497,0.30535 -3.51012,-0.0128 -1.18773,-0.46352 -2.04313,-1.680042 -2.43103,-3.457315 -0.31063,-1.423257 -0.38294,-3.209448 -0.30083,-7.430773 0.10479,-5.386994 0.0288,-5.935066 -0.88908,-6.415055 -1.11929,-0.585287 -2.82038,0.0554 -4.42286,1.665801 l -0.51956,0.522122 7.5e-4,5.503047 c 4.6e-4,3.346216 0.0413,5.75516 0.10416,6.146304 0.12444,0.77411 0.44753,1.515682 0.86995,1.996797 l 0.31159,0.354882 -0.36198,0.27609 c -0.58205,0.44396 -1.63191,0.91726 -2.5221,1.13703 -0.937,0.23133 -2.98585,0.34126 -3.57472,0.19179 z"
       id="path1380" />
    <path
       style="fill:#cc8213;fill-opacity:1;stroke-width:0.0989629"
       d="m 194.3632,101.893 c -1.73011,-0.28721 -2.9706,-0.73832 -4.09556,-1.48937 -1.76897,-1.181013 -3.02227,-2.919788 -3.75381,-5.207879 -0.55809,-1.745582 -0.65757,-2.548307 -0.65532,-5.287929 0.002,-2.185906 0.0278,-2.592548 0.22306,-3.491249 0.92019,-4.234567 3.1764,-6.823574 6.86836,-7.881464 1.3266,-0.380123 2.3915,-0.48557 4.28319,-0.424123 2.99429,0.09726 4.99926,0.823572 6.69851,2.426562 1.59345,1.503175 2.56479,3.502303 3.01417,6.203461 0.25213,1.515599 0.25192,4.832887 -4.1e-4,6.234664 -0.8504,4.72426 -3.5803,7.807827 -7.76328,8.769047 -1.11982,0.25732 -3.68633,0.3363 -4.81891,0.14828 z m 3.26577,-5.606035 c 1.09019,-0.514996 2.09066,-1.855236 2.46889,-3.307354 0.4035,-1.549124 0.45104,-4.384096 0.10041,-5.987099 -0.41514,-1.897917 -1.29424,-2.998424 -2.66547,-3.336809 -1.42736,-0.352237 -2.99236,0.296709 -3.85701,1.59935 -0.74334,1.119885 -1.14227,2.761965 -1.14301,4.704847 -0.001,3.364882 0.88198,5.618238 2.50624,6.393811 0.44338,0.211708 0.61748,0.23918 1.30343,0.205673 0.56485,-0.02759 0.9335,-0.105653 1.28652,-0.272419 z"
       id="path1381" />
    <path
       style="fill:#cc8213;fill-opacity:1;stroke-width:0.0989629"
       d="m 213.01072,101.90232 c -1.26589,-0.36051 -2.18379,-1.35574 -2.62705,-2.848342 -0.35109,-1.182245 -0.36324,-1.445368 -0.4315,-9.344081 -0.057,-6.600806 -0.0933,-8.007526 -0.2179,-8.461331 -0.20111,-0.732341 -0.41459,-1.214597 -0.77223,-1.744512 l -0.29879,-0.442733 0.32167,-0.133703 c 2.31407,-0.961834 6.05598,-1.136435 7.58942,-0.354129 0.93492,0.476959 1.48504,1.249214 1.64126,2.303966 0.0383,0.258541 0.0761,0.470074 0.0839,0.470074 0.008,0 0.31049,-0.283344 0.67247,-0.629653 1.22256,-1.169615 2.68591,-1.978621 4.33785,-2.398148 0.56131,-0.142549 1.06788,-0.186413 2.07822,-0.179956 1.15252,0.0074 1.44125,0.04327 2.10237,0.261447 1.8087,0.596892 2.98268,1.857984 3.64005,3.910148 0.59389,1.853994 0.61703,2.159169 0.69253,9.130381 0.0423,3.903257 0.10898,6.517675 0.1717,6.729479 0.089,0.300714 0.10408,0.222445 0.114,-0.593777 0.006,-0.517082 0.0944,-1.340948 0.19578,-1.830815 0.21396,-1.033807 -0.0896,-0.222614 4.74166,-12.668696 2.41391,-6.218526 3.87775,-10.125507 4.07866,-10.885922 0.34494,-1.305525 0.48974,-3.034387 0.31646,-3.778405 l -0.0967,-0.415106 0.87068,-0.204412 c 2.20691,-0.51812 3.95383,-0.489697 5.54273,0.09018 1.10055,0.40165 1.8488,0.883587 2.8476,1.83408 3.4618,3.294397 5.4853,9.088497 7.54693,21.609915 0.72932,4.429554 1.44804,6.585807 2.64461,7.934171 l 0.3885,0.437787 0.17039,-0.586141 c 0.38913,-1.338541 1.17988,-2.444821 2.10563,-2.945834 1.26963,-0.687113 2.60782,-0.77046 5.47008,-0.340694 2.55483,0.383603 3.84902,0.485751 5.6026,0.442199 1.18801,-0.02951 1.69113,-0.08239 2.05883,-0.216401 0.73355,-0.267359 1.22737,-0.636995 1.52316,-1.140138 0.22183,-0.37734 0.26446,-0.562618 0.25493,-1.108071 -0.0184,-1.054245 -0.38103,-1.464785 -1.42352,-1.611708 -0.50793,-0.07158 -1.78078,0.04418 -4.20592,0.382533 -2.42457,0.33827 -3.12519,0.379283 -4.41937,0.258705 -1.33912,-0.124766 -2.59615,-0.461059 -3.64611,-0.975443 -1.02128,-0.500335 -2.2053,-1.670914 -2.69918,-2.668539 -0.54212,-1.095074 -0.70081,-1.971417 -0.63834,-3.525144 0.0292,-0.726199 0.12373,-1.56165 0.21425,-1.893431 0.82012,-3.005874 3.09874,-4.452334 7.97211,-5.060668 0.8982,-0.112122 2.79716,-0.176806 6.92775,-0.235981 5.6859,-0.08145 6.33424,-0.122812 7.49162,-0.477873 l 0.31681,-0.09719 0.0665,0.443544 c 0.0366,0.243948 0.0359,0.808017 -0.002,1.253486 -0.14743,1.75344 -0.63376,2.919793 -1.59071,3.814974 -1.09694,1.026133 -2.36811,1.36564 -4.74873,1.268301 -1.61074,-0.06586 -2.55114,-0.219853 -4.7997,-0.785959 -1.5198,-0.382632 -1.72884,-0.411395 -3.01837,-0.415313 -1.25428,-0.0038 -1.42964,0.01754 -1.85182,0.225479 -0.63076,0.310665 -0.88945,0.744293 -0.88945,1.490893 0,0.330992 0.0663,0.704893 0.15574,0.877781 0.4084,0.789759 1.59117,1.367115 3.02117,1.474748 0.41355,0.03113 1.46445,0.0052 2.33532,-0.0577 3.92514,-0.283319 4.5103,-0.304466 5.66378,-0.204687 3.69397,0.319541 5.66729,1.705196 6.27084,4.403354 0.20454,0.914392 0.15385,2.896338 -0.0987,3.859397 -0.91148,3.475732 -3.64806,5.373294 -8.87037,6.150794 -1.69788,0.25278 -6.06362,0.25078 -8.50746,-0.004 -2.53517,-0.2642 -4.61741,-0.16358 -6.11096,0.29531 -0.15699,0.0482 -0.17319,-0.0399 -0.17319,-0.94244 v -0.99564 l -0.45592,0.34801 c -1.16511,0.88935 -3.05,1.53199 -4.48612,1.52952 -2.53025,-0.004 -4.09851,-1.14023 -4.90092,-3.549639 -0.33417,-1.003424 -0.49611,-1.886772 -0.79626,-4.343284 -0.13786,-1.128269 -0.27288,-2.151597 -0.30004,-2.274064 l -0.0494,-0.222666 h -3.94127 -3.94126 l -0.71018,2.323042 c -0.3906,1.277673 -0.75612,2.558006 -0.81226,2.845184 -0.17694,0.905084 -0.12952,2.714248 0.0895,3.415047 l 0.19277,0.61675 -0.45914,0.27892 c -1.47826,0.89799 -3.40332,1.22256 -5.10868,0.86132 -0.92203,-0.1953 -1.59285,-0.53762 -2.15482,-1.0996 l -0.46413,-0.46412 -0.91162,0.42355 c -1.46699,0.68159 -2.21383,0.90674 -3.20064,0.96488 -2.22132,0.13086 -3.72805,-0.92399 -4.28892,-3.002663 -0.39889,-1.478354 -0.43338,-2.413513 -0.25251,-6.846432 0.16871,-4.135091 0.14834,-4.898278 -0.15949,-5.974312 -0.18691,-0.653336 -0.69769,-1.294349 -1.28633,-1.614292 -0.71901,-0.390797 -1.77571,-0.422627 -2.48166,-0.07475 -0.59818,0.294771 -1.29305,0.971776 -1.66734,1.624454 l -0.30248,0.527469 7.9e-4,5.591406 c 8.4e-4,5.964798 0.0309,6.410185 0.49547,7.337505 0.11878,0.237096 0.34876,0.570928 0.51106,0.741855 l 0.29511,0.31076 -0.45624,0.3139 c -0.66481,0.4574 -1.57883,0.86196 -2.48093,1.09809 -1.00035,0.26185 -2.96276,0.35059 -3.61914,0.16365 z m 34.37187,-17.149064 c 0.96612,-0.03424 1.75659,-0.07398 1.75659,-0.08831 0,-0.01433 -0.0695,-0.688674 -0.15452,-1.498548 -0.297,-2.830362 -0.72678,-4.761598 -1.33594,-6.002994 -0.31597,-0.643922 -0.56345,-1.026446 -0.61766,-0.954722 -0.0508,0.06718 -2.64647,8.544041 -2.64418,8.635168 0.001,0.04515 0.28041,0.05725 0.6206,0.02688 0.34018,-0.03037 1.40898,-0.08323 2.37511,-0.117478 z"
       id="path1382" />
    <path
       style="fill:#cc8213;fill-opacity:1;stroke-width:0.0989629"
       d="m 290.59765,101.9026 c -1.40622,-0.40135 -2.26691,-1.41832 -2.78109,-3.28604 -0.21337,-0.775094 -0.21934,-0.958833 -0.2843,-8.758219 -0.0554,-6.655682 -0.0914,-8.07236 -0.21856,-8.609775 -0.17401,-0.735441 -0.39687,-1.259075 -0.78384,-1.841812 l -0.27018,-0.406849 0.22528,-0.102647 c 0.41097,-0.187247 1.68167,-0.508136 2.6711,-0.674526 0.67928,-0.114234 1.34118,-0.151402 2.17718,-0.122255 1.10672,0.03858 1.25364,0.0671 1.86823,0.362549 1.17785,0.566226 2.08753,1.762529 2.4568,3.230873 0.092,0.365688 0.14088,2.573761 0.18747,8.461331 0.0488,6.172216 0.0923,8.055673 0.19301,8.362367 0.17994,0.547989 0.48618,1.134288 0.76938,1.472978 l 0.23867,0.285425 -0.22656,0.24115 c -0.32928,0.3505 -1.68816,0.98841 -2.60345,1.22216 -1.00974,0.25786 -2.97681,0.34661 -3.61914,0.16329 z"
       id="path1383" />
    <path
       style="fill:#cc8213;fill-opacity:1;stroke-width:0.0989629"
       d="m 294.90953,76.482032 c -0.54943,-0.388584 -1.70791,-0.648736 -3.43479,-0.771326 -1.70344,-0.120927 -2.33182,-0.239368 -2.96692,-0.559227 -0.8912,-0.448842 -1.25843,-1.220211 -1.33756,-2.809577 -0.0696,-1.397647 0.25808,-3.212974 0.87086,-4.824726 l 0.0962,-0.252967 0.26879,0.257322 c 0.55572,0.53203 2.07042,1.019558 4.50803,1.450976 1.67509,0.296464 2.18496,0.610573 2.65811,1.637544 0.21296,0.462228 0.22781,0.618646 0.2256,2.37511 -0.002,1.443188 -0.0445,2.075844 -0.18358,2.721481 -0.0997,0.462652 -0.20994,0.889373 -0.24504,0.94827 -0.0409,0.06862 -0.20603,0.0065 -0.45968,-0.17288 z"
       id="path1384" />
    <path
       style="fill:#cc8213;fill-opacity:1;stroke-width:0.0989629"
       d="m 305.46017,101.82841 c -1.48802,-0.38969 -2.56046,-1.04689 -3.68681,-2.259302 -2.05304,-2.209898 -3.04591,-5.472245 -2.92528,-9.611804 0.0556,-1.908297 0.22274,-3.032618 0.66198,-4.453332 0.57501,-1.859848 1.42736,-3.319017 2.66573,-4.563551 1.61954,-1.627612 3.5515,-2.496464 5.54944,-2.495729 1.0481,3.86e-4 1.71892,0.198156 2.62252,0.773176 0.485,0.308633 1.53393,1.364355 1.53393,1.543859 0,0.05004 0.0498,0.09099 0.11066,0.09099 0.16023,0 0.0141,-1.59965 -0.20644,-2.260363 l -0.17644,-0.528512 0.30929,-0.189742 c 0.74913,-0.459566 2.08175,-0.842881 3.41733,-0.982961 1.66001,-0.174106 3.11065,0.133165 3.93988,0.834538 0.42242,0.357288 0.88909,1.340891 1.01409,2.137411 0.0628,0.400066 0.10178,3.898307 0.10315,9.253034 0.002,7.263543 0.0252,8.707254 0.14919,9.2332 0.17895,0.759027 0.35097,1.103979 0.79638,1.596998 l 0.34131,0.37778 -0.36255,0.27654 c -0.59021,0.45017 -1.63845,0.91973 -2.57362,1.15286 -0.68552,0.1709 -1.17496,0.21918 -2.26046,0.22296 -1.29545,0.005 -1.42162,-0.0121 -1.94165,-0.25594 -0.3059,-0.14344 -0.73921,-0.42615 -0.96291,-0.62825 -0.45565,-0.41165 -1.0477,-1.506569 -1.15361,-2.133451 l -0.0697,-0.412321 -0.21223,0.430884 c -0.34712,0.704742 -1.78311,2.082458 -2.54659,2.443238 -1.31975,0.62365 -2.76743,0.76636 -4.13663,0.40779 z m 5.14049,-5.588902 c 0.5464,-0.192782 1.02027,-0.55631 1.38941,-1.065891 l 0.29278,-0.404179 -0.0274,-4.863191 -0.0274,-4.863191 -0.27788,-0.364233 c -0.41727,-0.546935 -0.97082,-0.793262 -1.80035,-0.801151 -1.18921,-0.01131 -2.11751,0.639389 -2.78223,1.950228 -0.60734,1.197685 -0.77293,2.12001 -0.77693,4.32733 -0.004,2.074065 0.0917,2.812915 0.51728,4.004869 0.40041,1.121372 0.80866,1.650847 1.56308,2.027229 0.47849,0.238722 1.33526,0.261891 1.92964,0.05218 z"
       id="path1385" />
  </g>
  <g
     id="g1369"
     transform="translate(-90.168127,-67.069317)"
     style="fill:#ffa218;fill-opacity:1">
    <path
       style="fill:#ffa218;fill-opacity:1;stroke-width:0.0989629"
       d="M 94.531123,101.92959 C 93.05628,101.55538 92.134101,100.39199 91.630326,98.270037 91.46765,97.584832 91.44947,96.507989 91.393071,84.217454 91.336298,71.845537 91.319565,70.865371 91.155772,70.317435 90.951874,69.635336 90.67716,69.060042 90.341457,68.612136 90.211382,68.438587 90.138536,68.276863 90.179575,68.25275 c 0.118676,-0.06973 1.744785,-0.455744 2.578741,-0.612157 2.316109,-0.434399 6.836004,-0.675449 9.895644,-0.527741 4.26843,0.206063 7.66668,1.658849 9.69107,4.143032 0.69131,0.848333 1.44914,2.386571 1.77829,3.609573 0.2499,0.928549 0.26669,1.124007 0.27199,3.166814 0.004,1.70965 -0.0319,2.361695 -0.16938,3.036402 -0.73368,3.601826 -2.57016,6.095456 -5.56463,7.555848 -2.15738,1.052143 -4.36636,1.550821 -7.50043,1.693229 l -1.455717,0.06614 7.47e-4,3.423592 c 4.15e-4,1.90006 0.04677,3.709849 0.104157,4.066851 0.116335,0.723663 0.441523,1.503747 0.850223,2.039578 l 0.27465,0.360089 -0.29326,0.23881 c -0.48345,0.39369 -1.824273,1.01082 -2.668369,1.22816 -0.898084,0.23124 -2.852199,0.33832 -3.442178,0.18862 z m 8.245757,-18.261865 c 1.44365,-0.324053 2.31595,-0.907237 2.84682,-1.903254 0.50067,-0.939354 0.65113,-1.671145 0.65544,-3.187904 0.005,-1.836783 -0.28969,-2.786904 -1.1571,-3.72794 -0.97761,-1.060571 -2.67237,-1.559465 -4.66369,-1.372863 l -0.753197,0.07058 v 5.20222 5.202218 l 1.166697,-0.05866 c 0.64168,-0.03226 1.49894,-0.133241 1.90503,-0.224397 z"
       id="path1361" />
    <path
       style="fill:#ffa218;fill-opacity:1;stroke-width:0.0989629"
       d="m 125.18811,110.48187 c -0.98332,-0.14077 -1.82931,-0.30152 -3.87015,-0.73542 -2.92321,-0.6215 -3.9359,-0.7448 -4.895,-0.59599 -0.7201,0.11173 -1.30913,0.33472 -1.76603,0.66857 l -0.23904,0.17466 0.0622,-1.13627 c 0.17676,-3.22962 1.43774,-5.07598 3.72458,-5.45364 0.97892,-0.16167 2.41965,0.0106 3.99774,0.47803 0.6624,0.1962 1.55278,0.46067 1.97861,0.58771 2.34194,0.69868 4.62494,0.43392 5.50989,-0.63896 0.56809,-0.68872 0.71797,-1.27792 0.76959,-3.02532 l 0.0464,-1.57191 -0.63068,0.640985 c -1.19111,1.210575 -2.4706,1.612125 -4.88609,1.533425 -2.43554,-0.0794 -3.85044,-0.60976 -5.20169,-1.949972 -0.89905,-0.891714 -1.46127,-1.906713 -1.85151,-3.342611 l -0.26153,-0.962299 -0.007,-6.135702 c -0.006,-5.423159 -0.0269,-6.244882 -0.18127,-7.075849 -0.23302,-1.254478 -0.50056,-2.113741 -0.86013,-2.762474 -0.16334,-0.294695 -0.28197,-0.550815 -0.26363,-0.569157 0.11307,-0.113068 2.39282,-0.355881 3.43084,-0.365413 2.25979,-0.02075 3.51638,0.539867 4.23069,1.887485 0.6777,1.278557 0.75997,2.253326 0.56838,6.733983 -0.26224,6.132632 -0.19497,7.664256 0.3871,8.812905 0.36366,0.717647 0.73873,0.949172 1.60884,0.993111 0.39031,0.01971 0.86572,-0.01567 1.05647,-0.07862 0.93602,-0.308915 1.58063,-1.186907 1.89298,-2.57834 0.35766,-1.593292 0.50785,-9.269554 0.217,-11.091144 -0.29257,-1.832415 -0.75259,-3.14046 -1.41448,-4.021982 l -0.23889,-0.318169 0.52195,-0.147171 c 1.54257,-0.434949 3.4969,-0.450716 4.63041,-0.03736 1.33917,0.488361 2.38767,1.431272 2.96614,2.667428 0.59327,1.267798 0.59158,1.239146 0.59175,10.028988 1.8e-4,9.595993 -0.0803,10.910023 -0.8089,13.211553 -0.79424,2.50877 -2.10369,4.19168 -4.03939,5.19143 -1.4361,0.74172 -2.45422,0.95982 -4.64887,0.99591 -1.00695,0.0165 -1.96441,0.011 -2.1277,-0.0124 z"
       id="path1362" />
    <path
       style="fill:#ffa218;fill-opacity:1;stroke-width:0.0989629"
       d="m 148.19,101.89546 c -1.60777,-0.4335 -2.54709,-1.7923 -2.91656,-4.219047 -0.11145,-0.732039 -0.14326,-2.124527 -0.14372,-6.290668 l -5.8e-4,-5.350521 -1.26178,-0.313074 c -1.49835,-0.371775 -2.46637,-0.729201 -3.14207,-1.160166 -0.67239,-0.428851 -0.80816,-0.603909 -0.97999,-1.263618 -0.1656,-0.635778 -0.41197,-3.740499 -0.31655,-3.989152 0.0478,-0.124662 0.13917,-0.14595 0.409,-0.09533 0.72538,0.136081 2.79879,0.349285 4.02779,0.414167 l 1.27856,0.0675 -0.0412,-4.295342 c -0.0344,-3.585824 -0.0683,-4.398025 -0.20498,-4.916975 -0.18314,-0.695134 -0.46176,-1.294823 -0.82918,-1.784717 -0.13535,-0.180471 -0.22969,-0.344541 -0.20963,-0.3646 0.13044,-0.130442 1.7998,-0.585749 2.73958,-0.747201 3.21022,-0.551513 5.07644,0.07721 6.13223,2.065918 0.61905,1.166044 0.64122,1.353536 0.68509,5.792053 l 0.04,4.042932 0.46311,-0.06863 c 1.55267,-0.230097 4.06641,-1.104037 4.81258,-1.673165 0.18593,-0.141816 0.37891,-0.257847 0.42885,-0.257847 0.0499,0 0.12076,0.812733 0.15737,1.806073 0.12294,3.335093 -0.19659,4.981381 -1.14153,5.881433 -0.64685,0.616127 -2.03484,1.105723 -3.59624,1.268537 -0.32658,0.03405 -0.71625,0.08495 -0.86593,0.113094 l -0.27215,0.05118 0.002,5.459839 c 0.002,5.823141 0.0334,6.281773 0.4964,7.205938 0.11878,0.237096 0.34543,0.567494 0.50367,0.734209 l 0.2877,0.30314 -0.71896,0.40405 c -1.9258,1.08227 -4.35737,1.57505 -5.82255,1.17999 z"
       id="path1363" />
    <path
       style="fill:#ffa218;fill-opacity:1;stroke-width:0.0989629"
       d="m 164.49959,101.92989 c -1.71801,-0.43606 -2.7089,-1.951599 -3.0381,-4.646733 -0.0655,-0.536472 -0.10243,-5.249032 -0.10243,-13.080687 0,-8.200376 -0.0352,-12.494952 -0.10653,-13.007977 -0.12785,-0.919265 -0.36761,-1.591665 -0.82694,-2.3192 l -0.34181,-0.541389 0.66238,-0.227855 c 1.14398,-0.393523 2.39795,-0.621953 3.74212,-0.681684 1.14523,-0.05089 1.38023,-0.03284 1.99205,0.152993 1.3715,0.41658 2.31484,1.385759 2.86597,2.944478 l 0.27614,0.780956 0.0306,5.031231 0.0306,5.03123 0.51375,-0.48436 c 2.67485,-2.521847 7.1719,-3.510896 9.94964,-2.188251 1.22678,0.584146 2.24166,1.93009 2.67679,3.550014 0.47981,1.786259 0.50761,2.588762 0.40613,11.722647 -0.0556,5.002917 -0.0384,5.16413 0.63655,5.952598 0.3262,0.381089 0.33669,0.414659 0.1753,0.560719 -0.29867,0.27029 -1.4244,0.74744 -2.2963,0.97331 -1.19975,0.31079 -2.69497,0.30535 -3.51012,-0.0128 -1.18773,-0.46352 -2.04313,-1.680042 -2.43103,-3.457315 -0.31063,-1.423257 -0.38294,-3.209448 -0.30083,-7.430773 0.10479,-5.386994 0.0288,-5.935066 -0.88908,-6.415055 -1.11929,-0.585287 -2.82038,0.0554 -4.42286,1.665801 l -0.51956,0.522122 7.5e-4,5.503047 c 4.6e-4,3.346216 0.0413,5.75516 0.10416,6.146304 0.12444,0.77411 0.44753,1.515682 0.86995,1.996797 l 0.31159,0.354882 -0.36198,0.27609 c -0.58205,0.44396 -1.63191,0.91726 -2.5221,1.13703 -0.937,0.23133 -2.98585,0.34126 -3.57472,0.19179 z"
       id="path1364" />
    <path
       style="fill:#ffa218;fill-opacity:1;stroke-width:0.0989629"
       d="m 194.3632,101.893 c -1.73011,-0.28721 -2.9706,-0.73832 -4.09556,-1.48937 -1.76897,-1.181013 -3.02227,-2.919788 -3.75381,-5.207879 -0.55809,-1.745582 -0.65757,-2.548307 -0.65532,-5.287929 0.002,-2.185906 0.0278,-2.592548 0.22306,-3.491249 0.92019,-4.234567 3.1764,-6.823574 6.86836,-7.881464 1.3266,-0.380123 2.3915,-0.48557 4.28319,-0.424123 2.99429,0.09726 4.99926,0.823572 6.69851,2.426562 1.59345,1.503175 2.56479,3.502303 3.01417,6.203461 0.25213,1.515599 0.25192,4.832887 -4.1e-4,6.234664 -0.8504,4.72426 -3.5803,7.807827 -7.76328,8.769047 -1.11982,0.25732 -3.68633,0.3363 -4.81891,0.14828 z m 3.26577,-5.606035 c 1.09019,-0.514996 2.09066,-1.855236 2.46889,-3.307354 0.4035,-1.549124 0.45104,-4.384096 0.10041,-5.987099 -0.41514,-1.897917 -1.29424,-2.998424 -2.66547,-3.336809 -1.42736,-0.352237 -2.99236,0.296709 -3.85701,1.59935 -0.74334,1.119885 -1.14227,2.761965 -1.14301,4.704847 -0.001,3.364882 0.88198,5.618238 2.50624,6.393811 0.44338,0.211708 0.61748,0.23918 1.30343,0.205673 0.56485,-0.02759 0.9335,-0.105653 1.28652,-0.272419 z"
       id="path1365" />
    <path
       style="fill:#ffa218;fill-opacity:1;stroke-width:0.0989629"
       d="m 213.01072,101.90232 c -1.26589,-0.36051 -2.18379,-1.35574 -2.62705,-2.848342 -0.35109,-1.182245 -0.36324,-1.445368 -0.4315,-9.344081 -0.057,-6.600806 -0.0933,-8.007526 -0.2179,-8.461331 -0.20111,-0.732341 -0.41459,-1.214597 -0.77223,-1.744512 l -0.29879,-0.442733 0.32167,-0.133703 c 2.31407,-0.961834 6.05598,-1.136435 7.58942,-0.354129 0.93492,0.476959 1.48504,1.249214 1.64126,2.303966 0.0383,0.258541 0.0761,0.470074 0.0839,0.470074 0.008,0 0.31049,-0.283344 0.67247,-0.629653 1.22256,-1.169615 2.68591,-1.978621 4.33785,-2.398148 0.56131,-0.142549 1.06788,-0.186413 2.07822,-0.179956 1.15252,0.0074 1.44125,0.04327 2.10237,0.261447 1.8087,0.596892 2.98268,1.857984 3.64005,3.910148 0.59389,1.853994 0.61703,2.159169 0.69253,9.130381 0.0423,3.903257 0.10898,6.517675 0.1717,6.729479 0.089,0.300714 0.10408,0.222445 0.114,-0.593777 0.006,-0.517082 0.0944,-1.340948 0.19578,-1.830815 0.21396,-1.033807 -0.0896,-0.222614 4.74166,-12.668696 2.41391,-6.218526 3.87775,-10.125507 4.07866,-10.885922 0.34494,-1.305525 0.48974,-3.034387 0.31646,-3.778405 l -0.0967,-0.415106 0.87068,-0.204412 c 2.20691,-0.51812 3.95383,-0.489697 5.54273,0.09018 1.10055,0.40165 1.8488,0.883587 2.8476,1.83408 3.4618,3.294397 5.4853,9.088497 7.54693,21.609915 0.72932,4.429554 1.44804,6.585807 2.64461,7.934171 l 0.3885,0.437787 0.17039,-0.586141 c 0.38913,-1.338541 1.17988,-2.444821 2.10563,-2.945834 1.26963,-0.687113 2.60782,-0.77046 5.47008,-0.340694 2.55483,0.383603 3.84902,0.485751 5.6026,0.442199 1.18801,-0.02951 1.69113,-0.08239 2.05883,-0.216401 0.73355,-0.267359 1.22737,-0.636995 1.52316,-1.140138 0.22183,-0.37734 0.26446,-0.562618 0.25493,-1.108071 -0.0184,-1.054245 -0.38103,-1.464785 -1.42352,-1.611708 -0.50793,-0.07158 -1.78078,0.04418 -4.20592,0.382533 -2.42457,0.33827 -3.12519,0.379283 -4.41937,0.258705 -1.33912,-0.124766 -2.59615,-0.461059 -3.64611,-0.975443 -1.02128,-0.500335 -2.2053,-1.670914 -2.69918,-2.668539 -0.54212,-1.095074 -0.70081,-1.971417 -0.63834,-3.525144 0.0292,-0.726199 0.12373,-1.56165 0.21425,-1.893431 0.82012,-3.005874 3.09874,-4.452334 7.97211,-5.060668 0.8982,-0.112122 2.79716,-0.176806 6.92775,-0.235981 5.6859,-0.08145 6.33424,-0.122812 7.49162,-0.477873 l 0.31681,-0.09719 0.0665,0.443544 c 0.0366,0.243948 0.0359,0.808017 -0.002,1.253486 -0.14743,1.75344 -0.63376,2.919793 -1.59071,3.814974 -1.09694,1.026133 -2.36811,1.36564 -4.74873,1.268301 -1.61074,-0.06586 -2.55114,-0.219853 -4.7997,-0.785959 -1.5198,-0.382632 -1.72884,-0.411395 -3.01837,-0.415313 -1.25428,-0.0038 -1.42964,0.01754 -1.85182,0.225479 -0.63076,0.310665 -0.88945,0.744293 -0.88945,1.490893 0,0.330992 0.0663,0.704893 0.15574,0.877781 0.4084,0.789759 1.59117,1.367115 3.02117,1.474748 0.41355,0.03113 1.46445,0.0052 2.33532,-0.0577 3.92514,-0.283319 4.5103,-0.304466 5.66378,-0.204687 3.69397,0.319541 5.66729,1.705196 6.27084,4.403354 0.20454,0.914392 0.15385,2.896338 -0.0987,3.859397 -0.91148,3.475732 -3.64806,5.373294 -8.87037,6.150794 -1.69788,0.25278 -6.06362,0.25078 -8.50746,-0.004 -2.53517,-0.2642 -4.61741,-0.16358 -6.11096,0.29531 -0.15699,0.0482 -0.17319,-0.0399 -0.17319,-0.94244 v -0.99564 l -0.45592,0.34801 c -1.16511,0.88935 -3.05,1.53199 -4.48612,1.52952 -2.53025,-0.004 -4.09851,-1.14023 -4.90092,-3.549639 -0.33417,-1.003424 -0.49611,-1.886772 -0.79626,-4.343284 -0.13786,-1.128269 -0.27288,-2.151597 -0.30004,-2.274064 l -0.0494,-0.222666 h -3.94127 -3.94126 l -0.71018,2.323042 c -0.3906,1.277673 -0.75612,2.558006 -0.81226,2.845184 -0.17694,0.905084 -0.12952,2.714248 0.0895,3.415047 l 0.19277,0.61675 -0.45914,0.27892 c -1.47826,0.89799 -3.40332,1.22256 -5.10868,0.86132 -0.92203,-0.1953 -1.59285,-0.53762 -2.15482,-1.0996 l -0.46413,-0.46412 -0.91162,0.42355 c -1.46699,0.68159 -2.21383,0.90674 -3.20064,0.96488 -2.22132,0.13086 -3.72805,-0.92399 -4.28892,-3.002663 -0.39889,-1.478354 -0.43338,-2.413513 -0.25251,-6.846432 0.16871,-4.135091 0.14834,-4.898278 -0.15949,-5.974312 -0.18691,-0.653336 -0.69769,-1.294349 -1.28633,-1.614292 -0.71901,-0.390797 -1.77571,-0.422627 -2.48166,-0.07475 -0.59818,0.294771 -1.29305,0.971776 -1.66734,1.624454 l -0.30248,0.527469 7.9e-4,5.591406 c 8.4e-4,5.964798 0.0309,6.410185 0.49547,7.337505 0.11878,0.237096 0.34876,0.570928 0.51106,0.741855 l 0.29511,0.31076 -0.45624,0.3139 c -0.66481,0.4574 -1.57883,0.86196 -2.48093,1.09809 -1.00035,0.26185 -2.96276,0.35059 -3.61914,0.16365 z m 34.37187,-17.149064 c 0.96612,-0.03424 1.75659,-0.07398 1.75659,-0.08831 0,-0.01433 -0.0695,-0.688674 -0.15452,-1.498548 -0.297,-2.830362 -0.72678,-4.761598 -1.33594,-6.002994 -0.31597,-0.643922 -0.56345,-1.026446 -0.61766,-0.954722 -0.0508,0.06718 -2.64647,8.544041 -2.64418,8.635168 0.001,0.04515 0.28041,0.05725 0.6206,0.02688 0.34018,-0.03037 1.40898,-0.08323 2.37511,-0.117478 z"
       id="path1366" />
    <path
       style="fill:#ffa218;fill-opacity:1;stroke-width:0.0989629"
       d="m 290.59765,101.9026 c -1.40622,-0.40135 -2.26691,-1.41832 -2.78109,-3.28604 -0.21337,-0.775094 -0.21934,-0.958833 -0.2843,-8.758219 -0.0554,-6.655682 -0.0914,-8.07236 -0.21856,-8.609775 -0.17401,-0.735441 -0.39687,-1.259075 -0.78384,-1.841812 l -0.27018,-0.406849 0.22528,-0.102647 c 0.41097,-0.187247 1.68167,-0.508136 2.6711,-0.674526 0.67928,-0.114234 1.34118,-0.151402 2.17718,-0.122255 1.10672,0.03858 1.25364,0.0671 1.86823,0.362549 1.17785,0.566226 2.08753,1.762529 2.4568,3.230873 0.092,0.365688 0.14088,2.573761 0.18747,8.461331 0.0488,6.172216 0.0923,8.055673 0.19301,8.362367 0.17994,0.547989 0.48618,1.134288 0.76938,1.472978 l 0.23867,0.285425 -0.22656,0.24115 c -0.32928,0.3505 -1.68816,0.98841 -2.60345,1.22216 -1.00974,0.25786 -2.97681,0.34661 -3.61914,0.16329 z"
       id="path1367" />
    <path
       style="fill:#ffa218;fill-opacity:1;stroke-width:0.0989629"
       d="m 294.90953,76.482032 c -0.54943,-0.388584 -1.70791,-0.648736 -3.43479,-0.771326 -1.70344,-0.120927 -2.33182,-0.239368 -2.96692,-0.559227 -0.8912,-0.448842 -1.25843,-1.220211 -1.33756,-2.809577 -0.0696,-1.397647 0.25808,-3.212974 0.87086,-4.824726 l 0.0962,-0.252967 0.26879,0.257322 c 0.55572,0.53203 2.07042,1.019558 4.50803,1.450976 1.67509,0.296464 2.18496,0.610573 2.65811,1.637544 0.21296,0.462228 0.22781,0.618646 0.2256,2.37511 -0.002,1.443188 -0.0445,2.075844 -0.18358,2.721481 -0.0997,0.462652 -0.20994,0.889373 -0.24504,0.94827 -0.0409,0.06862 -0.20603,0.0065 -0.45968,-0.17288 z"
       id="path1368" />
    <path
       style="fill:#ffa218;fill-opacity:1;stroke-width:0.0989629"
       d="m 305.46017,101.82841 c -1.48802,-0.38969 -2.56046,-1.04689 -3.68681,-2.259302 -2.05304,-2.209898 -3.04591,-5.472245 -2.92528,-9.611804 0.0556,-1.908297 0.22274,-3.032618 0.66198,-4.453332 0.57501,-1.859848 1.42736,-3.319017 2.66573,-4.563551 1.61954,-1.627612 3.5515,-2.496464 5.54944,-2.495729 1.0481,3.86e-4 1.71892,0.198156 2.62252,0.773176 0.485,0.308633 1.53393,1.364355 1.53393,1.543859 0,0.05004 0.0498,0.09099 0.11066,0.09099 0.16023,0 0.0141,-1.59965 -0.20644,-2.260363 l -0.17644,-0.528512 0.30929,-0.189742 c 0.74913,-0.459566 2.08175,-0.842881 3.41733,-0.982961 1.66001,-0.174106 3.11065,0.133165 3.93988,0.834538 0.42242,0.357288 0.88909,1.340891 1.01409,2.137411 0.0628,0.400066 0.10178,3.898307 0.10315,9.253034 0.002,7.263543 0.0252,8.707254 0.14919,9.2332 0.17895,0.759027 0.35097,1.103979 0.79638,1.596998 l 0.34131,0.37778 -0.36255,0.27654 c -0.59021,0.45017 -1.63845,0.91973 -2.57362,1.15286 -0.68552,0.1709 -1.17496,0.21918 -2.26046,0.22296 -1.29545,0.005 -1.42162,-0.0121 -1.94165,-0.25594 -0.3059,-0.14344 -0.73921,-0.42615 -0.96291,-0.62825 -0.45565,-0.41165 -1.0477,-1.506569 -1.15361,-2.133451 l -0.0697,-0.412321 -0.21223,0.430884 c -0.34712,0.704742 -1.78311,2.082458 -2.54659,2.443238 -1.31975,0.62365 -2.76743,0.76636 -4.13663,0.40779 z m 5.14049,-5.588902 c 0.5464,-0.192782 1.02027,-0.55631 1.38941,-1.065891 l 0.29278,-0.404179 -0.0274,-4.863191 -0.0274,-4.863191 -0.27788,-0.364233 c -0.41727,-0.546935 -0.97082,-0.793262 -1.80035,-0.801151 -1.18921,-0.01131 -2.11751,0.639389 -2.78223,1.950228 -0.60734,1.197685 -0.77293,2.12001 -0.77693,4.32733 -0.004,2.074065 0.0917,2.812915 0.51728,4.004869 0.40041,1.121372 0.80866,1.650847 1.56308,2.027229 0.47849,0.238722 1.33526,0.261891 1.92964,0.05218 z"
       id="path1369" />
  </g>
</svg>
